<svg xmlns="http://www.w3.org/2000/svg" viewBox="0 0 1024 1024" version="1.1"><path d="M550.4 824.4c-24.7-57.5-53.2-158 2.9-237.4 1.2-1 2.1-1.8 3.1-2.7A176.9 176.9 0 0 0 627.2 457.6c0.5-5.6 1.2-11.1 1.2-16.8V336.1C628.4 239 552.7 160 459.7 160c-93 0-168.7 79-168.7 176.1v104.7c0 60.2 29.1 113.3 73.3 145.1a911.3 911.3 0 0 0-158.1 53.3C179.8 650.2 160 681.1 160 710.9v113.8c0 3.5 0.5 7 1.6 10.3 8.6 26.4 31.9 44.2 58 44.2h309.7a29.8 29.8 0 0 0 19.7-7.9c6.6-5.9 11-14.3 11-24.1 0-0.8-0.4-2-0.7-3.1a69.7 69.7 0 0 0-8.9-19.6M804.5 725.2h-39.3V768c0 12.4-9.6 22.4-21.5 22.4a22 22 0 0 1-21.5-22.4v-42.8H681.6a22 22 0 0 1-21.5-22.4c0-12.4 9.6-22.4 21.5-22.4h40.6V640c0-12.4 9.6-22.4 21.5-22.4 11.9 0 21.5 10 21.5 22.4v40.4h39.3c11.9 0 21.5 10 21.5 22.4 0 12.4-9.6 22.4-21.5 22.4m-16.1-207.3A176.6 176.6 0 0 0 743.7 512c-101.6 0-184.3 86.1-184.3 192 0 105.9 82.7 192 184.3 192 15.5 0 30.4-2.2 44.7-6C868.5 869.1 928 793.8 928 704s-59.5-165.2-139.6-186" p-id="571"></path></svg>