<svg xmlns="http://www.w3.org/2000/svg" viewBox="0 0 1024 1024" version="1.1"><path d="M896 320h-128a32 32 0 0 0 0 64h128a32 32 0 0 0 0-64M896 448h-128a32 32 0 0 0 0 64h128a32 32 0 0 0 0-64M768 256h128a32 32 0 0 0 0-64h-128a32 32 0 0 0 0 64M768 835.4H193.5c-0.4 0-1-0.3-1.5-0.7v-118.7c0-5.9 5.9-14.9 12.1-17.5 1.6-0.6 156.9-68.6 275.9-68.6 118.8 0 274.4 68 276.7 69 5.3 2.2 11.3 11.3 11.3 17.1v119.4z m-407.6-394.6v-104.8a112 112 0 0 1 111.8-112 112 112 0 0 1 111.7 112v104.8a112 112 0 0 1-111.7 112.1 112.1 112.1 0 0 1-111.8-112.1z m421.3 199.2c-5.1-2.3-97.2-42.6-198.7-62.8a175.9 175.9 0 0 0 64.9-136.4v-104.8C647.9 239 569.1 160 472.2 160c-96.9 0-175.8 79-175.8 176v104.8c0 56.5 26.9 106.8 68.4 139.1-96.5 20.8-181.3 57.8-185.5 59.7C150 651.4 128 684.2 128 716v131.7l1.7 5c9.5 27.9 35.1 46.6 63.8 46.6h573c33.3 0 60.8-24.9 65-57l0.5-126.4c0-31.6-22-64.4-50.2-76z" p-id="604"></path></svg>