<svg xmlns="http://www.w3.org/2000/svg" viewBox="0 0 1024 1024" version="1.1"><path d="M812.9 528.9C812.2 530.9 730.8 736 504.2 736c-225.4 0-305.2-198.2-309.7-209.4-3.2-6.4-2.9-21.3 1.4-29.9C196.7 494.7 287.8 288 504.2 288c215.3 0 304.4 199.8 309.2 210.8 3.3 6.2 3.6 21.3-0.5 30.1m58.1-57.9C866.7 460.9 762.2 224 504.2 224 246.1 224 141.3 461.4 137.9 469.6c-12.7 24.9-13.1 60.9-2 82.8 1 2.5 98 247.7 368.2 247.7 270.1 0 367.6-245.7 367.6-246 11.7-24.8 10.9-61.6-0.7-83M568.2 552a64.1 64.1 0 0 1-64 64c-35.3 0-64-28.7-64-64v-71.9c0-35.3 28.7-64.1 64-64.1s64 28.7 64 64.1v71.9z m-64-200c-70.6 0-128 57.4-128 128.1v71.9a128.2 128.2 0 0 0 128 128c70.6 0 128-57.4 128-128v-71.9a128.2 128.2 0 0 0-128-128.1z" p-id="648"></path></svg>