<svg xmlns="http://www.w3.org/2000/svg" viewBox="0 0 1024 1024" version="1.1"><path d="M766.9 435.3l-176.6-176.6 66.7-66.8 176.5 176.7-66.7 66.7zM401.4 801L224.6 624.2l0.3 0.1L545 303.9l176.6 176.6L401.4 801zM224 801.9v-87.9l87.7 87.7-87.7 0.2z m655-478.5l-176.8-176.7A61 61 0 0 0 657 128a64 64 0 0 0-45.1 18.8L179.6 579a63.9 63.9 0 0 0-17.9 54.4c-0.8 2.7-1.7 5.3-1.7 8.3v160.3c0 35.1 28.6 63.7 63.7 63.7h160.3c2.9 0 5.5-0.9 8.2-1.6 3 0.4 6 0.8 9 0.8 16.4 0 32.9-6.3 45.4-18.8l432.2-432.2a64 64 0 0 0 0.2-90.4z" p-id="659"></path></svg>