<svg xmlns="http://www.w3.org/2000/svg" viewBox="0 0 1024 1024" version="1.1"><path d="M736 352h-192a32 32 0 1 0 0 64h192a32 32 0 1 0 0-64M736 480h-128a32 32 0 1 0 0 64h128a32 32 0 1 0 0-64M736 608h-128a32 32 0 1 0 0 64h128a32 32 0 1 0 0-64M831.9 768L192 768.2 192.1 256 832 255.8l0.2 512.2-0.3 0m0-576H192.1A64 64 0 0 0 128 255.8v512.4C128 803.4 156.8 832 192.1 832h639.8A64 64 0 0 0 896 768.2V255.8A64 64 0 0 0 831.9 192M480 622.1H288v-20.7c20.6-8.3 63.8-23 96-23 31.7 0 74.7 14.5 96 23.1v20.7zM355.4 441.6c0-14.4 11.2-25.6 25.5-25.6a25.6 25.6 0 0 1 25.5 25.6v41.9a25.3 25.3 0 0 1-25.5 25.6 25.6 25.6 0 0 1-25.5-25.6V441.6z m157.1 104a483.2 483.2 0 0 0-53.7-18.9c7.2-12.9 11.6-27.5 11.6-43.2V441.6c0-49.4-40.2-89.6-89.5-89.6a89.7 89.7 0 0 0-89.5 89.6v41.9c0 16.4 4.7 31.5 12.4 44.7-26.6 8-46.3 16.5-47.3 17A53.2 53.2 0 0 0 224 593.6v55.9l1.7 5c6.5 19 24 31.7 43.7 31.7h229.2a45.4 45.4 0 0 0 45.3-42L544 593.6c0-20.6-13.3-40.4-31.6-48z" p-id="692"></path></svg>