<svg xmlns="http://www.w3.org/2000/svg" viewBox="0 0 1024 1024" version="1.1"><path d="M736 416h-192a32 32 0 1 1 0-64h192a32 32 0 1 1 0 64m0 128h-128a32 32 0 1 1 0-64h128a32 32 0 1 1 0 64m0 128h-128a32 32 0 1 1 0-64h128a32 32 0 1 1 0 64m-510.3-17.5L224 649.5v-55.9c0-20.7 13.3-40.6 32.5-48.3 1-0.5 20.7-9 47.3-17a88.7 88.7 0 0 1-12.4-44.7V441.6c0-39.2 25.5-72.3 60.6-84.4 9.1-3.1 18.7-5.2 28.9-5.2a89.8 89.8 0 0 1 89.5 89.6v41.9c0 15.7-4.4 30.3-11.6 43.2a483.2 483.2 0 0 1 53.7 18.9c12.9 5.3 23 16.9 28 30.4 2.1 5.6 3.6 11.5 3.6 17.6l-0.1 50.6a45.4 45.4 0 0 1-45.3 42H269.4a46.3 46.3 0 0 1-43.7-31.7M831.9 192H192A64 64 0 0 0 128 255.8v512.4C128 803.4 156.8 832 192.1 832h639.8A64 64 0 0 0 896 768.2V255.8A64 64 0 0 0 831.9 192" p-id="681"></path></svg>