<svg xmlns="http://www.w3.org/2000/svg" viewBox="0 0 1024 1024" version="1.1"><path d="M528 384c88.2 0 160 71.8 160 160s-71.8 160-160 160-160-71.8-160-160 71.8-160 160-160m320-105.7a62.7 62.7 0 0 0-16-2.2h-104.8L704.7 224l-6.7-15.5C686 180.9 654.3 160 624.1 160h-192.3c-30.1 0-61.9 20.9-73.9 48.5L351.3 224l-22.5 52H224c-5.5 0-10.8 1-16 2.3a64.2 64.2 0 0 0-48 62.1v439.4c0 29.9 20.4 54.8 48 62 5.1 1.3 10.4 2.3 16 2.3h608.1c5.5 0 10.8-1 16-2.2a64.2 64.2 0 0 0 48-62v-439.4c0-29.9-20.5-54.9-48-62.1" p-id="703"></path></svg>