<svg xmlns="http://www.w3.org/2000/svg" viewBox="0 0 1024 1024" version="1.1"><path d="M224 779.7l-0.1-439.7h147l45.9-106c1.9-4.3 10.5-10 15.1-10h192.3c4.8 0 13.2 5.6 15.1 9.9l45.9 106.1 146.9 0.3 0 439.7L224 779.7zM832 276h-104.8l-29.2-67.5C686 180.9 654.3 160 624.1 160h-192.3c-30.1 0-61.9 20.9-73.9 48.5l-29.2 67.5H224A64.2 64.2 0 0 0 160 340.3v439.4c0 35.5 28.7 64.3 64 64.3h608.1A64.2 64.2 0 0 0 896 779.7v-439.4c0-35.5-28.7-64.3-64-64.3zM528 640c-52.9 0-96-43.1-96-96s43.1-96 96-96 96 43.1 96 96-43.1 96-96 96m0-256c-88.2 0-160 71.8-160 160s71.8 160 160 160 160-71.8 160-160-71.8-160-160-160" p-id="714"></path></svg>