<svg xmlns="http://www.w3.org/2000/svg" viewBox="0 0 1024 1024" version="1.1"><path d="M512 813.2c-158.8 0-288-129.2-288-288s129.2-288 288-288 288 129.2 288 288-129.2 288-288 288m0-640c-194.1 0-352 157.9-352 352 0 101.9 43.7 193.5 113.2 257.8a31 31 0 0 0-13.2 7.6l-58.5 58.6a32 32 0 1 0 45.2 45.2l58.5-58.5a31.6 31.6 0 0 0 8.8-19.8A349.7 349.7 0 0 0 512 877.2c71.3 0 137.7-21.4 193.2-58a31 31 0 0 0 8.2 16.7l58.5 58.6a31.9 31.9 0 0 0 45.2 0 32 32 0 0 0 0-45.3l-58.5-58.5a31.4 31.4 0 0 0-9.3-6.2C819.6 720.1 864 627.8 864 525.2c0-194.1-157.9-352-352-352M544 519.1v-185.9a32 32 0 0 0-64 0v199.1c0 8.5 3.4 16.6 9.4 22.6l107.3 107.3a31.9 31.9 0 0 0 45.2 0 32 32 0 0 0 0-45.2L544 519.1zM182.6 286.4l90.5-90.6a32 32 0 0 0-45.2-45.2L137.4 241.2A32 32 0 1 0 182.6 286.4M883.9 227.9l-90.5-90.5a32 32 0 1 0-45.2 45.2l90.5 90.5a31.9 31.9 0 0 0 45.2 0 32 32 0 0 0 0-45.2" p-id="736"></path></svg>