<svg xmlns="http://www.w3.org/2000/svg" viewBox="0 0 1024 1024" version="1.1"><path d="M480 532.4v-199.1a32 32 0 0 1 64 0v185.9l97.9 97.9a32 32 0 0 1-45.2 45.2l-107.3-107.3a31.9 31.9 0 0 1-9.4-22.6m32-359.1c-194.1 0-352 157.9-352 352 0 101.9 43.7 193.5 113.2 257.8a31.4 31.4 0 0 0-13.2 7.6l-58.5 58.5a32 32 0 1 0 45.2 45.2l58.5-58.6a31.5 31.5 0 0 0 8.8-19.8A349.7 349.7 0 0 0 512 877.3c71.3 0 137.7-21.4 193.2-58a31 31 0 0 0 8.2 16.6l58.5 58.6a31.9 31.9 0 0 0 45.2 0 32 32 0 0 0 0-45.2l-58.5-58.6a32 32 0 0 0-9.3-6.1C819.6 720.1 864 627.8 864 525.2c0-194.1-157.9-352-352-352M182.6 286.4l90.5-90.6a32 32 0 0 0-45.2-45.2L137.4 241.2A32 32 0 1 0 182.6 286.4M883.9 227.9l-90.5-90.5a32 32 0 1 0-45.2 45.2l90.5 90.5a31.9 31.9 0 0 0 45.2 0 32 32 0 0 0 0-45.2" p-id="725"></path></svg>