<svg xmlns="http://www.w3.org/2000/svg" viewBox="0 0 1024 1024" version="1.1"><path d="M800.3 281.6h-128c0-88.1-71.7-159.7-159.7-159.7S352.3 193.5 352.3 281.6h-128c-35.3 0-63.5 28.7-64 64v476.7c0 35.3 28.7 64 64 64h576.5c35.3 0 63.5-28.7 64-64V345.6c-1-35.3-29.2-64-64.5-64zM512 180.2c52.7 0 96.3 43 96.3 96.3H415.7c0-52.7 43.5-96.3 96.3-96.3zM224.3 826.9v-486.4h128v80.4c-19.5 11.3-32.8 32.3-32.8 56.3 0 35.8 29.2 64.5 64.5 64.5s64.5-29.2 64.5-64.5c0-24.1-13.3-45.1-32.8-56.3V340.5h192v80.4c-19.5 11.3-32.8 32.3-32.8 56.3 0 35.8 29.2 64.5 64.5 64.5s64.5-29.2 64.5-64.5c0-24.1-13.3-45.1-32.8-56.3V340.5h128v486.4H224.3z" p-id="2463"></path></svg>