<svg xmlns="http://www.w3.org/2000/svg" viewBox="0 0 1024 1024" version="1.1"><path d="M608 576a22.4 22.4 0 0 1 0 44.8h-73.6v19.2a22.4 22.4 0 1 1-44.8 0v-19.2H416a22.4 22.4 0 1 1 0-44.8h73.6v-51.2H416a22.4 22.4 0 1 1 0-44.8h64.4l-0.2-0.2-64-64a22.4 22.4 0 0 1 31.7-31.7l64 64 0.2 0.2 0.2-0.2 64-64a22.4 22.4 0 1 1 31.7 31.7l-64 64-0.2 0.2H608a22.4 22.4 0 0 1 0 44.8h-73.6V576H608z m256-160h32V255.8A64 64 0 0 0 831.9 192H192.1A64 64 0 0 0 128 255.8V416h32c52.9 0 96 43.1 96 96s-43.1 96-96 96H128v160.2A64 64 0 0 0 192.1 832h639.9A64 64 0 0 0 896 768.2V608h-32c-52.9 0-96-43.1-96-96s43.1-96 96-96z" p-id="824"></path></svg>