<svg xmlns="http://www.w3.org/2000/svg" viewBox="0 0 1024 1024" version="1.1"><path d="M832 668.8l-0.1 99.2L192 768.2V668.8c73-14.8 128-79.5 128-156.8a160.3 160.3 0 0 0-128-156.8L192.1 256 832 255.8V355.2a160.3 160.3 0 0 0-128 156.8 160.3 160.3 0 0 0 128 156.8m32-252.8h32V255.8A64 64 0 0 0 831.9 192H192.1a64 64 0 0 0-64.1 63.8V416h32c53 0 96 43 96 96 0 52.9-43 96-96 96H128v160.2A64 64 0 0 0 192.1 832h639.8A64 64 0 0 0 896 768.2V608h-32c-52.9 0-96-43.1-96-96 0-53 43.1-96 96-96M608 524.8a22.4 22.4 0 1 0 0-44.8h-64.4c0.1-0.1 0.2-0.1 0.2-0.2l64-64a22.4 22.4 0 1 0-31.7-31.7l-64 64-0.2 0.2-0.2-0.3-64-64a22.4 22.4 0 0 0-31.7 31.7l64 64c0.1 0.1 0.2 0.1 0.2 0.2H416a22.4 22.4 0 1 0 0 44.8h73.6V576H416a22.4 22.4 0 1 0 0 44.8h73.6v19.2a22.4 22.4 0 0 0 44.8 0v-19.2H608a22.4 22.4 0 1 0 0-44.8h-73.6v-51.2H608z" p-id="835"></path></svg>