<svg xmlns="http://www.w3.org/2000/svg" viewBox="0 0 1024 1024" version="1.1"><path d="M680.6 384h-224a32 32 0 1 1 0-64h224a32 32 0 1 1 0 64m0 160h-224a32 32 0 1 1 0-64h224a32 32 0 1 1 0 64m0 160h-224a32 32 0 1 1 0-64h224a32 32 0 1 1 0 64m-328.6-320a32 32 0 1 1 0-64 32 32 0 0 1 0 64m0 160a32 32 0 0 1 0-64 32 32 0 0 1 0 64m0 160a32 32 0 0 1 0-64 32 32 0 0 1 0 64M799.9 160H223.7A63.8 63.8 0 0 0 160 223.7v576.5C160 835.4 188.6 864 223.8 864h576.5a63.8 63.8 0 0 0 63.7-63.7V223.7A64 64 0 0 0 799.9 160" p-id="846"></path></svg>