<svg xmlns="http://www.w3.org/2000/svg" viewBox="0 0 1024 1024" version="1.1"><path d="M799.7 416H736v-64.2C736 228.4 635.5 128 512 128s-224 100.4-224 223.8V416H224.3C188.9 416 160 444.7 160 479.9v192.2C160 707.3 188.9 736 224.3 736h94.8c0.3 0 0.6 0.2 0.9 0.2 0.3 0 0.6-0.2 0.9-0.2h31V351.8A160.1 160.1 0 0 1 512 192c88.3 0 160 71.7 160 159.8v384.4c0 34.1-8.3 58.2-25.5 73.7-16.6 14.8-42.9 22.8-78.1 24.3A63.8 63.8 0 0 0 512 800a64 64 0 0 0 0 128c22.8 0 42.7-12 54-30 53.3-1.4 94.2-14.5 123.2-40.5 31-27.9 46.8-68.7 46.8-121.3V736h63.7A64.2 64.2 0 0 0 864 672.1v-192.2A64.2 64.2 0 0 0 799.7 416" p-id="868"></path></svg>