<svg xmlns="http://www.w3.org/2000/svg" viewBox="0 0 1024 1024" version="1.1"><path d="M413.4 204.2c-33.6 0-43.3 2.7-68.5 10.7-25.2 7.9-18.6 16.6-5.5 29.7 13.1 13.2 76.2 79 76.2 79a27.7 27.7 0 0 1-0.7 39.1L335.5 439.2a27.7 27.7 0 0 1-39.1-0.7S230.9 370.3 221.4 360.7c-9.5-9.6-24-21.3-32-0.6-8 20.7-12.8 40.1-12.8 75.2 0 127.7 106 231.1 236.8 231.1 130.8 0 236.9-103.4 236.9-231.1 0-127.6-106.1-231.1-236.9-231.1z m289.2 417.2c13.5 13.4 128.3 128.3 128.3 128.3s17.2 16.2 16.5 31.6c-0.7 15.5-17 29.7-17 29.7l-60.4 55.9s-10.1 10.3-28.3 10.3-34.7-16.5-34.7-16.5-118.8-119.3-131.9-132.3c-4.5-4-5.9-17.4 3.3-21.9 9.2-5.7 39.6-22.9 59.6-42.9 16.4-16.3 25.5-29.7 35.3-43.3 7.2-11.8 18.4-9.6 29.3 1.2z" p-id="2386"></path></svg>