<svg xmlns="http://www.w3.org/2000/svg" viewBox="0 0 1024 1024" version="1.1"><path d="M224 831.9V192.1L223.8 192H576v159.9c0 35.3 28.7 64.1 64.1 64.1h159.7c0 0.5 0.2 1.2 0.2 1.7L800.3 832 224 831.9zM757.7 352L640 351.9V224.1L757.7 352z m76.1-11.9l-163.9-178.1C651.7 142.3 619.3 128 592.7 128H223.8A64 64 0 0 0 160 192.1v639.8A64 64 0 0 0 223.7 896h576.5A64 64 0 0 0 864 831.9V417.7c0-25.9-12.7-58.5-30.3-77.5zM640 512h-256a32 32 0 0 0 0 64h256a32 32 0 0 0 0-64M640 672h-256a32 32 0 0 0 0 64h256a32 32 0 0 0 0-64" p-id="912"></path></svg>