<svg xmlns="http://www.w3.org/2000/svg" viewBox="0 0 1024 1024" version="1.1"><path d="M512 832c-176.4 0-320-143.6-320-320S335.6 192 512 192s320 143.6 320 320-143.6 320-320 320m0-704C300.3 128 128 300.3 128 512s172.3 384 384 384 384-172.3 384-384S723.7 128 512 128M700.6 580.3a32 32 0 0 0-43.7 11.7A160.6 160.6 0 0 1 518.3 672a160.6 160.6 0 0 1-138.6-80 32 32 0 0 0-55.4 32 224.9 224.9 0 0 0 194 112 224.8 224.8 0 0 0 194-112 32 32 0 0 0-11.7-43.7M384 512a32 32 0 0 0 32-32v-96a32 32 0 0 0-64 0v96a32 32 0 0 0 32 32M640 512a32 32 0 0 0 32-32v-96a32 32 0 0 0-64 0v96a32 32 0 0 0 32 32" p-id="989"></path></svg>