<svg xmlns="http://www.w3.org/2000/svg" viewBox="0 0 1024 1024" version="1.1"><path d="M821.3 197.2l-126.8 17.8-11.9-84.5a36.5 36.5 0 0 0-14.5-24.2c-16.4-12.4-41.4-11.1-54.7-9.2l-253.8 35.6c-46.6 6.6-60.2 30.7-57.3 51.1l11 78.2 0.9 6.3-76.1 10.7-50.7 7.1a32 32 0 1 0 8.9 63.4l23.6-3.3 18.2-2.5 4.2-0.6 50.8-7.1 63.9-9 73.1-10.3 192-27 192-27 16-2.2c17.5-2.4 29.7-18.6 27.2-36.1s-18.5-29.8-36.1-27.2zM398.2 454.2a32 32 0 0 1 64 0v210.5a32 32 0 0 1-64 0v-210.5z m192 0a32 32 0 0 1 64 0v210.5a32 32 0 0 1-64 0v-210.5z m-352-40.7v392.7c0 20.6 10 38.8 25.2 50.6 10.8 8.3 24.2 13.4 38.8 13.4h447.9a63.4 63.4 0 0 0 38.8-13.4c15.2-11.7 25.2-29.9 25.2-50.6V394.2H237.3l0.9 19.3z" p-id="1011"></path></svg>