<svg xmlns="http://www.w3.org/2000/svg" viewBox="0 0 1024 1024" version="1.1"><path d="M181.1 586.7h35.6a56.9 56.9 0 0 1 39.9 16.3l45.6 44.8a28.4 28.4 0 0 0 45.4-7.7l74.7-151.2a22.8 22.8 0 0 1 41.4 1.2l85.5 203a56.9 56.9 0 0 0 101.9 5.9l55.3-97.8a28.4 28.4 0 0 1 24.8-14.5h121.4a38.3 38.3 0 1 0 0-76.6H699.9a28.4 28.4 0 0 0-24.9 14.7l-46.6 83.9a22.8 22.8 0 0 1-41-2.7l-92.4-233.1a56.9 56.9 0 0 0-105.1-1.6l-68.9 159.3a22.8 22.8 0 0 1-36.7 7.3l-12.1-11.7a56.9 56.9 0 0 0-39.6-16h-52.6a37.7 37.7 0 0 0-37.7 37.8v0.5a38.8 38.8 0 0 0 38.8 38.3z m-120.1-364.7L459.2 13a113.8 113.8 0 0 1 105.9 0.1l398.1 210a113.8 113.8 0 0 1 60.7 100.6v374.1a113.8 113.8 0 0 1-60.2 100.4L565.7 1010.6a113.8 113.8 0 0 1-107.1 0L60.3 798.2A113.8 113.8 0 0 1 0 697.8V322.8a113.8 113.8 0 0 1 60.9-100.7z" p-id="2474"></path></svg>