<svg xmlns="http://www.w3.org/2000/svg" viewBox="0 0 1024 1024" version="1.1"><path d="M544 581.7v15.5a32 32 0 1 1-64 0V560c0-14.8 10.3-26.8 24-30.4 72-30.1 72.1-74.7 72-76.6l-0-49.2c0-28.5-28.7-51.8-64-51.8-35.3 0-64 23.3-64 51.8v15.6a32 32 0 0 1-64 0v-15.6c0-63.8 57.4-115.8 128-115.8 70.6 0 128 52 128 115.8v47.6c0.2 1.3 4.7 80.8-96 130.3M512 736a32 32 0 1 1 0-64 32 32 0 0 1 0 64m0-608C300.3 128 128 300.3 128 512c0 211.7 172.3 384 384 384s384-172.3 384-384c0-211.7-172.3-384-384-384" p-id="1055"></path></svg>