<svg xmlns="http://www.w3.org/2000/svg" viewBox="0 0 1024 1024" version="1.1"><path d="M704 767.4A318 318 0 0 1 512 832a318 318 0 0 1-192-64.6C242.5 708.9 192 616.4 192 512c0-176.4 143.6-320 320-320s320 143.6 320 320c0 104.4-50.5 196.9-128 255.4M512 128C300.3 128 128 300.3 128 512c0 141.8 77.4 265.5 192 332A381.3 381.3 0 0 0 511.9 896h0.1A381.3 381.3 0 0 0 704 844c114.6-66.5 192-190.3 192-332 0-211.7-172.3-384-384-384M639.9 403.8C639.9 339.9 582.5 288 512 288c-70.6 0-128 51.9-128 115.8v15.5a32 32 0 1 0 64 0v-15.6c0-28.6 28.7-51.8 64-51.8 35.3 0 64 23.2 64 51.8v49.2c0.1 1.5-0.5 31.6-39.8 59a169.4 169.4 0 0 1-32.2 17.6 31.6 31.6 0 0 0-24 30.4v37.2a32 32 0 0 0 64 0v-15.5c42-20.7 65.7-46.5 79-69.7 18.6-32.5 17-59.8 16.9-60.6V403.8zM512 672a32 32 0 1 0 0 64 32 32 0 0 0 0-64" p-id="1066"></path></svg>