<svg xmlns="http://www.w3.org/2000/svg" viewBox="0 0 1024 1024" version="1.1"><path d="M483.2 158c-5.2-4-13.1-6.7-23.6-7.9-10.5-1.3-20 0.1-28.5 4.2-11.1 5.5-19 10.2-23.6 14-4.6 3.8-11.5 6.4-20.6 7.9-5.2 1-11 0.8-17.2-0.8a1831.7 1831.7 0 0 0-19.2-4.5 134.7 134.7 0 0 0-18.7-3c-5.9-0.5-11.1 0.5-15.7 3-9.2 5.6-12.1 12.2-8.8 20.1 3.3 7.8 9.2 14 17.7 18.5a310.3 310.3 0 0 1 24.1 15.5 123.9 123.9 0 0 1 22.1 20.1c3.3 4 7.2 8.6 11.8 13.6a260.7 260.7 0 0 1 12.8 15.1 515.5 515.5 0 0 1 13.8 17.4h203.4a166.5 166.5 0 0 0 12.8-15.9 196.5 196.5 0 0 1 10.8-13.6 468.5 468.5 0 0 1 10.8-12.1 498.9 498.9 0 0 1 19.7-20.1c6.6-6.3 16.1-12.5 28.5-18.5a41.7 41.7 0 0 0 13.3-9.8c3.6-4 5.9-8.1 6.9-12.1 1-4 0.3-7.9-2-11.7s-6.7-6.7-13.3-8.7c-5.9-1.5-11-2-15.2-1.5-4.3 0.5-8.5 1.4-12.8 2.6-4.3 1.3-8.7 2.6-13.3 4.2-4.6 1.5-10.2 2.3-16.7 2.3-6.6 0-12-0.9-16.2-2.6a61.6 61.6 0 0 1-11.8-6.4c-3.6-2.5-7.4-5.2-11.3-7.9s-9.2-4.9-15.7-6.4c-13.1-4-23.6-4.8-31.4-2.3-7.9 2.5-15.7 6.6-23.6 12.1-6.6 5-11.8 8.6-15.7 10.6-2 1-3.6 1.5-4.9 1.5a65.3 65.3 0 0 1-10.8-5.3M344.4 394.4a1166.3 1166.3 0 0 1-43.9 35.9 358.3 358.3 0 0 0-51.8 48.7 270.5 270.5 0 0 0-39.7 59.9c-10.6 21.8-17.9 45-21.9 69.8-4 24.8-3.3 50.7 2.3 77.7 5 24.2 15.2 48.6 30.8 73.1 15.6 24.5 36.6 46.7 63 66.5 26.4 19.8 58.7 35.9 96.6 48.3 38 12.4 81.5 18.6 130.7 18.6 47.9 0 90.7-5.4 128.4-16.1 37.7-10.7 70.2-25.2 97.6-43.4 27.4-18.2 53.4-38.6 69.9-63.1 16.5-24.5 29-54 34.6-81.6 6.2-33.6 4.7-60.4 0-87.6-4.7-27.3-16-52.5-27.9-73.4-11.8-20.9-25.7-39.2-41.5-54.9-15.9-15.7-31.3-29.3-46.2-40.9-18-13.2-30.7-21-44.4-32.8-13.7-11.8-23.9-16.2-33.3-25.6-11.2-10.5-25.8-18-33.3-26.8H404.3m216.9 340c13.7 0 24.8 10.6 24.8 23.8 0 13.1-11.1 23.8-24.8 23.8h-81.6v20.4c0 13.1-11.1 23.8-24.8 23.8-13.7 0-24.8-10.6-24.8-23.8v-20.4H408.4c-13.7 0-24.8-10.6-24.8-23.8 0-13.1 11.1-23.8 24.8-23.8h81.6v-54.4H408.4c-13.7 0-24.8-10.6-24.8-23.8 0-13.1 11.1-23.8 24.8-23.8H479.7l-0.2-0.2-71-67.9c-9.7-9.3-9.7-24.3 0-33.6s25.4-9.3 35.1 0l71 68 0.2 0.2 0.2-0.2 71-67.9c9.7-9.3 25.4-9.3 35.1 0a23.1 23.1 0 0 1 0 33.6l-71 67.9-0.2 0.2h71.3c13.7 0 24.8 10.6 24.8 23.8s-11.1 23.8-24.8 23.8h-81.6v54.4h81.6z" p-id="2353"></path></svg>