<svg xmlns="http://www.w3.org/2000/svg" viewBox="0 0 1024 1024" version="1.1"><path d="M401.4 512c0-52.9 43.1-96 96-96s96 43.1 96 96-43.1 96-96 96-96-43.1-96-96m256 0c0-88.2-71.8-160-160-160s-160 71.8-160 160 71.8 160 160 160 160-71.8 160-160M890.3 569.9a31.6 31.6 0 0 0-40.9-2.9V224.3a64.1 64.1 0 0 0-63.7-64.3H209.1a63.8 63.8 0 0 0-63.7 63.8v65.2a32 32 0 1 0 64 0L209.1 224l576.3 0.3V565.4a31.5 31.5 0 0 0-38.6 4.4 32 32 0 0 0 0 45.2l49.1 49.2a32 32 0 0 0 45.2 0l49.2-49.2a32 32 0 0 0 0-45.2M817.4 704.1a32 32 0 0 0-32 32L785.7 800l-576.3-0.3V462.7a31.6 31.6 0 0 0 16.9 5.6 32 32 0 0 0 22.6-54.6L199.8 364.5a32 32 0 0 0-45.2 0l-49.2 49.2a32 32 0 0 0 0 45.2 31.6 31.6 0 0 0 40 3.5V799.7c0 35.5 28.6 64.3 63.8 64.3h576.5a63.9 63.9 0 0 0 63.7-64v-64a32 32 0 0 0-32-32" p-id="1121"></path></svg>