<svg xmlns="http://www.w3.org/2000/svg" viewBox="0 0 1024 1024" version="1.1"><path d="M657.4 512c0-88.2-71.8-160-160-160s-160 71.8-160 160 71.8 160 160 160 160-71.8 160-160M890.3 569.9a31.6 31.6 0 0 0-40.9-2.9V224.3a64.1 64.1 0 0 0-63.7-64.3H209.2a63.8 63.8 0 0 0-63.7 63.8v65.2a32 32 0 1 0 64 0l-0.3-65 576.3 0.3v341.1a31.6 31.6 0 0 0-38.6 4.5 32 32 0 0 0 0 45.2l49.2 49.2a31.9 31.9 0 0 0 45.2 0l49.2-49.2a32 32 0 0 0 0-45.2M817.4 704.1a32 32 0 0 0-32 32L785.7 800l-576.3-0.3V462.7a31.6 31.6 0 0 0 16.9 5.6 32 32 0 0 0 22.7-54.6l-49.1-49.2a32 32 0 0 0-45.3 0l-49.2 49.2a32 32 0 0 0 0 45.2c10.9 11 27.6 11.7 40 3.5V799.7c0 35.5 28.6 64.3 63.8 64.3h576.5a63.9 63.9 0 0 0 63.7-63.9v-64a32 32 0 0 0-32-32" p-id="1132"></path></svg>