<svg xmlns="http://www.w3.org/2000/svg" viewBox="0 0 1024 1024" version="1.1"><path d="M864 844.8a2.5 2.5 0 0 1-1.5 0.7L288 844.1V726.1c0-5.8 6-14.9 12.1-17.4C301.7 708 457 640 576 640c118.8 0 274.3 68 276.9 69.1 5.2 2.1 11.1 11.2 11.1 17v118.7zM480.5 440.8v-104.7A112.1 112.1 0 0 1 592.3 224 112 112 0 0 1 704 336.1v104.7a112 112 0 0 1-111.7 112.1 112 112 0 0 1-111.8-112.1z m397.2 209.3c-5-2.2-92.6-40.4-191-61.1A176 176 0 0 0 768 440.8v-104.7C768 239 689.2 160 592.3 160c-96.9 0-175.8 79-175.8 176.1v104.7c0 59.1 29.3 111.5 74.1 143.4-108.2 18.7-210.8 63.5-215.6 65.6C246 661.8 224 694.6 224 726.1v126.4h0.5a65.5 65.5 0 0 0 65 57h573c28.7 0 54.3-18.8 63.8-46.7l1.7-5V726.1c0-31.8-22-64.7-50.3-76zM360.4 573.4c1 0 2 0.3 3 0.3a32 32 0 1 0 0-64A68.7 68.7 0 0 1 294.7 441v-84.3C294.7 318.8 325.5 288 363.4 288a32 32 0 0 0 0-64 132.8 132.8 0 0 0-132.6 132.7v84.3c0 32.7 12.4 62.4 32.1 85.5-62.7 19.3-117.5 49.7-127.6 55.5C112.4 592.8 96 618.7 96 644.4v91.9a32 32 0 1 0 64 0v-91.7a11.4 11.4 0 0 1 2.3-4.7 29 29 0 0 0 3.6-1.8c30.4-17.7 123.8-63.7 189.8-63.7 1.6 0 3.1-0.7 4.7-1" p-id="1154"></path></svg>