<svg xmlns="http://www.w3.org/2000/svg" viewBox="0 0 1024 1024" version="1.1"><path d="M768 512h-192v-192h192v192z m-320 32a32 32 0 0 1-32 32H288a32 32 0 0 1 0-64h128c8.5 0 16.2 3.5 21.9 8.9A31.8 31.8 0 0 1 448 544z m128 128a32 32 0 0 1-32 32H288a32 32 0 0 1 0-64h256c8.5 0 16.2 3.5 21.9 8.9A31.8 31.8 0 0 1 576 672z m255.9-480H192.1A64 64 0 0 0 128 255.8v512.4c0 8.1 1.7 15.7 4.4 22.8 0.3 0.6 0.4 1.3 0.6 2 0.8 1.8 1.9 3.4 2.8 5.1 1 1.9 1.9 3.9 3.1 5.7 0.6 1 1.5 1.7 2.1 2.6 1.8 2.4 3.6 4.8 5.7 6.8 1 1 2.2 1.7 3.2 2.7 2 1.8 4 3.6 6.3 5.2 0.4 0.3 1 0.5 1.5 0.8 3 1.9 6 3.7 9.4 5.1 3.2 1.4 6.7 2.3 10.2 3.1 0.6 0.2 1.2 0.4 1.8 0.6 4.2 0.9 8.5 1.3 12.9 1.3h639.8A64 64 0 0 0 896 768.2V255.8A64 64 0 0 0 831.9 192z" p-id="1176"></path></svg>