<svg xmlns="http://www.w3.org/2000/svg" viewBox="0 0 1024 1024" version="1.1"><path d="M768 790.6l-128-0v-118.9a128.2 128.2 0 0 0-128-128.2c-70.6 0-128 57.5-128 128.2v118.9l-128-0V365l255.7-167.5L768 365.4v425.2z m-192-0l-128-0v-118.9c0-35.4 28.7-64.2 64-64.2s64 28.8 64 64.2v118.9z m304.9-427.7L800 309.9V207.2a32 32 0 1 0-64 0v60.8l-206.5-135.3A31.3 31.3 0 0 0 511.4 128a31.2 31.2 0 0 0-17.6 4.6l-351.4 230.2a32 32 0 0 0 35.1 53.5L192 406.9v393.1c0 30.1 27.2 54.6 60.6 54.6h518.8c33.4 0 60.6-24.5 60.6-54.6v-392.6l13.9 9.1a32 32 0 0 0 35-53.5z" p-id="1209"></path></svg>