<svg xmlns="http://www.w3.org/2000/svg" viewBox="0 0 1024 1024" version="1.1"><path d="M640 790.5H297.5v-0.1l86.5 0v-118.9c0-0.8 0.2-1.5 0.2-2.3 1.3-69.6 58-125.9 127.8-125.9s126.5 56.3 127.8 125.9c0 0.8 0.2 1.5 0.2 2.3v118.9z m240.9-427.7L800 309.9V207.2a32 32 0 1 0-64 0v60.8l-206.5-135.3A31.3 31.3 0 0 0 511.4 128a31.2 31.2 0 0 0-17.6 4.6L142.5 362.9a32 32 0 0 0 35.1 53.5L192 406.9V800c0 30.1 27.2 54.6 60.6 54.6h518.8C804.8 854.6 832 830.1 832 800V407.4l13.9 9.1a32 32 0 0 0 35-53.5z" p-id="1198"></path></svg>