<svg xmlns="http://www.w3.org/2000/svg" viewBox="0 0 1024 1024" version="1.1"><path d="M253.4 555c14.3-1.5 24.6-7.2 34.3-17.9 26.1-29.2 54.8-42 84.5-37.9 24.6 3.6 44 17.9 58.4 28.7 4.6 3.6 9.2 6.7 12.8 8.7 15.4 8.2 27.1 8.2 32.8 3.6 4.1-3.1 3.6-8.2 2.6-12.3-3.1-10.8-27.6-60.9-40.4-84-12.3-22-13.3-47.1-3.1-67.6 13.3-26.1 43-41 88.1-45.6h1c10.8-0.5 29.7-3.1 35.3-12.3 5.6-9.7 1.5-31.2-11.3-57.9-10.8-17.4-13.3-37.4-8.2-56.8 2-7.2 4.6-14.3 8.7-21-10.2-1-21-1.5-31.2-1.5-45.6 0-89.6 8.7-130.6 26.6-39.9 16.9-75.8 41-107 72.2-30.7 30.7-55.3 67.1-72.2 107-17.4 41.5-26.6 85.5-26.6 130.6 0 8.7 0.5 16.9 1 25.1 29.2 10.2 53.2 14.3 71.2 12.3zM755.7 698.9c-9.7 16.9-21 36.4-42 49.7-23 13.8-53.2 17.4-94.2 10.8-45.6-7.7-86 2-103.4 24.1-16.9 21-10.2 51.7-1 75.3h2c45.6 0 89.6-8.7 130.6-26.6 39.9-16.9 75.8-41 107-72.2 30.7-30.7 55.3-67.1 72.2-107 1-2 1.5-4.1 2.6-5.6-19.5 2-34.3 6.7-45.1 14.8-12.8 9.7-20.5 23-28.7 36.9zM826.9 386.6c-16.9-39.9-41-75.8-72.2-107-30.7-30.7-67.1-55.3-107-72.2-14.8-6.1-29.7-11.3-45.1-15.4-8.2 6.1-14.3 14.8-16.4 23.6-2 7.2-1 13.8 3.1 20.5l0.5 1 0.5 1c21.5 43.5 25.1 78.8 10.2 103.9-12.8 22-37.9 34.3-73.7 35.8-26.6 2.6-44.5 9.7-49.7 20-3.6 6.7-1 15.9 2 22 10.8 19.5 39.4 76.3 45.1 94.2 7.2 24.1 0 48.1-18.4 63-22 17.4-54.8 17.9-86 0.5-6.1-3.1-11.8-7.7-17.9-12.3-29.2-21.5-47.6-32.3-78.3 2.6-17.4 19.5-38.4 30.7-64 33.8-5.1 0.5-10.2 1-15.9 1-15.9 0-33.8-2.6-53.2-8.2 4.1 17.9 9.7 35.3 17.4 52.7 16.9 39.9 41 75.8 72.2 107 30.7 30.7 67.1 55.3 107 72.2 24.6 10.8 50.7 17.9 76.8 22-4.1-15.4-6.1-29.7-5.6-43.5 1-22 7.7-41 20.5-57.3 14.8-18.9 37.9-32.8 66-39.9 25.1-6.1 53.8-6.7 82.9-2 28.7 4.6 49.2 3.1 61.4-4.1 10.8-6.7 17.4-17.9 25.6-32.3 17.9-31.7 43-74.8 130.6-76.3 5.6-24.6 8.7-50.2 8.7-76.3-1-45.1-9.7-89.1-27.1-130zM517.1 133.1c-212 0-384 172-384 384s172 384 384 384 384-172 384-384-172-384-384-384z m0 704c-176.6 0-320-143.4-320-320s143.4-320 320-320 320 143.4 320 320-143.4 320-320 320z" p-id="2452"></path></svg>