<svg xmlns="http://www.w3.org/2000/svg" viewBox="0 0 1024 1024" version="1.1"><path d="M809.9 424.7l-306.9 372.3L196.2 425c-3.7-4.5-5.4-16.6-3.2-22.1l56.5-136.8c1.9-4.5 10.1-10 15-10h477c4.8 0 13.2 5.6 15 10l56.5 136.6c2.3 5.6 0.6 17.3-3.2 22m62.3-46.5L815.7 241.5C803.9 213.3 772.1 192 741.5 192H264.5c-30.6 0-62.5 21.3-74.2 49.6L133.8 378.5c-11.2 27.1-5.6 64.6 13 87.2l311.1 377.2c11.5 13.9 28 21.9 45.1 21.9h0c17.2 0 33.6-8 45.1-22l311.1-377.4c18.9-22.9 24.4-59.6 13-87.2M615 384h-224a32 32 0 0 0 0 64h224a32 32 0 0 0 0-64" p-id="1231"></path></svg>