<svg xmlns="http://www.w3.org/2000/svg" viewBox="0 0 1024 1024" version="1.1"><path d="M224 352h64a32 32 0 0 0 0-64H224a32 32 0 0 0 0 64M224 544h64a32 32 0 0 0 0-64H224a32 32 0 0 0 0 64M384 352h64a32 32 0 0 0 0-64h-64a32 32 0 0 0 0 64M384 544h64a32 32 0 0 0 0-64h-64a32 32 0 0 0 0 64M544 352h64a32 32 0 0 0 0-64h-64a32 32 0 0 0 0 64M704 352h64a32 32 0 0 0 0-64h-64a32 32 0 0 0 0 64M544 544h64a32 32 0 0 0 0-64h-64a32 32 0 0 0 0 64M704 544h64a32 32 0 0 0 0-64h-64a32 32 0 0 0 0 64M779.8 672H224a32 32 0 0 0 0 64h555.8a32 32 0 0 0 0-64" p-id="1264"></path></svg>