<svg xmlns="http://www.w3.org/2000/svg" viewBox="0 0 1024 1024" version="1.1"><path d="M797 497.7l-333.4 333.4h-0.1L191.9 559.7l333.4-333.4C533.5 225.4 553.6 224 601.3 224c82.2 0 191.7 4 193.8 5.1 4.2 111.3 5.8 236.9 1.9 268.6m62.1-269.8c0-35.2-28.6-63.8-62.7-63.8h-0.1C795.3 164.1 684.7 160 601.3 160c-96.2 0-104.8 4.6-115.2 15L146.7 514.5c-25 25-24.9 65.6 0.2 90.7l271.2 271.2c12.2 12.1 28.3 18.8 45.4 18.8 17.2 0 33.2-6.6 45.2-18.6l339.4-339.4c11.2-11.2 21.8-21.8 11-309.2M609.4 440.3c-26.5 0-48-21.5-48-48s21.5-48 48-48 48 21.5 48 48-21.5 48-48 48m0-160c-61.8 0-112 50.2-112 112s50.2 112 112 112 112-50.2 112-112-50.2-112-112-112" p-id="1275"></path></svg>