<svg xmlns="http://www.w3.org/2000/svg" viewBox="0 0 1024 1024" version="1.1"><path d="M480 618.8v-104.7l73.1 51L480 618.8z m146.3-80.7l-160-111.7a32 32 0 0 0-44.5 8 31.5 31.5 0 0 0-4.2 26.6c-0.6 2.5-1.5 5-1.5 7.7v192c0 3.9 0.9 7.7 2.3 11.2a31.4 31.4 0 0 0 3.9 29.1 32 32 0 0 0 44.8 6.8l160-117.7a32 32 0 0 0-0.7-52zM224 804.7v-480h576l0.3 480H224z m576.3-544h-188.8l40.1-87.4a32 32 0 1 0-58.2-26.7l-52.3 114H459.5l-52.3-114a32 32 0 1 0-58.2 26.7l40.1 87.4H223.7a63.9 63.9 0 0 0-63.7 64v480c0 35.3 28.6 64 63.7 64h576.5a63.9 63.9 0 0 0 63.7-64v-480c0-35.3-28.6-64-63.7-64z" p-id="1330"></path></svg>