<svg xmlns="http://www.w3.org/2000/svg" viewBox="0 0 1024 1024" version="1.1"><path d="M627 590.1l-160 117.7a31.9 31.9 0 0 1-44.7-6.8 31.4 31.4 0 0 1-4-29.1 31.9 31.9 0 0 1-2.3-11.2v-192c0-2.7 0.9-5.2 1.6-7.7a31.4 31.4 0 0 1 4.2-26.6c10.2-14.4 30.1-18 44.6-7.9l160 111.6a32 32 0 0 1 0.6 52M800.3 260.7h-188.8l40.1-87.4c7.4-16 0.3-35-15.7-42.4a32.1 32.1 0 0 0-42.4 15.8l-52.3 114H459.5l-52.3-114A32.1 32.1 0 0 0 364.8 130.9a32.1 32.1 0 0 0-15.8 42.5l40.1 87.3H223.7a64 64 0 0 0-63.7 64v480c0 35.3 28.6 64 63.7 64h576.5a63.9 63.9 0 0 0 63.7-64v-480c0-35.3-28.5-64-63.7-64" p-id="1319"></path></svg>