<svg xmlns="http://www.w3.org/2000/svg" viewBox="0 0 1024 1024" version="1.1"><path d="M224 799.9v-319.8L223.7 480 800 480.1 800.3 800 224 799.9z m170.3-483.3A124.7 124.7 0 0 1 518.7 192a124.7 124.7 0 0 1 124.5 124.6V416h-248.9V316.6zM800.3 416H707.2V316.6A188.7 188.7 0 0 0 518.7 128c-103.9 0-188.4 84.6-188.4 188.6V416h-106.6A64 64 0 0 0 160 480.1v319.8A64 64 0 0 0 223.7 864h576.5A64 64 0 0 0 864 799.9v-319.8A64 64 0 0 0 800.3 416zM512 544a32 32 0 0 0-32 32v128a32 32 0 0 0 64 0v-128a32 32 0 0 0-32-32" p-id="1352"></path></svg>