<svg xmlns="http://www.w3.org/2000/svg" viewBox="0 0 1024 1024" version="1.1"><path d="M943.2 266.1l-59.6-14.6s-15.4-6.3-37.8-15.6c4.9-8.5 9.5-17.3 13.8-26.5 9.9-21.3 9.4-23.7 15.8-47.5 2.4-19.6 6.1-39.1 4.3-59.8-1.5-16.4-7.2-37.2-15.3-48.2-9.1-12.5-28-12.7-37.6 9.2-6.8 15.6-8.3 33.5-15.7 49-18 37.8-42.7 50.8-84.5 67.9-52.2-29.8-116.4-44.1-196.3-44.1-1.2 0-2.4 0-3.6 0-1.2-0-2.4-0-3.6-0-78.6 0-142.1 13.8-193.9 42.7-39.7-15.9-63.5-25.5-81-62.2-7.4-15.5-8.9-33.4-15.7-49-9.6-21.9-28.5-21.7-37.6-9.2-8 11-13.8 31.9-15.3 48.2-1.9 20.6 1.8 40.1 4.3 59.8 6.4 23.8 5.9 26.2 15.8 47.5a255.8 255.8 0 0 0 10.9 20.9c-24.1 10.1-40.9 16.9-40.9 16.9l-59.6 14.6s-36.7 9.9-12.1 54.5c20.3 36.9 80.4 62.5 100.7 70.2l-12.4 90.1c-0-0.6-0.1-1.1-0.1-1.7l-2 17.2-11 80c-14.7 106.4 7.8 196.4 69.7 263.4 62.5 67.6 154.4 101.6 278.8 101.6 1.9 0 3.8-0.1 5.7-0.1 1.7 0 3.3 0.1 5.1 0.1 105.2 0 187-24.4 247.6-72.7 1.2-0.9 2.4-1.9 3.5-2.8 2.6-2.2 5.2-4.4 7.7-6.6 2-1.8 4.1-3.6 6.1-5.5 2.2-2 4.2-4.1 6.3-6.2 1.4-1.4 2.8-2.7 4.2-4.1 0.5-0.5 0.9-1 1.3-1.5 0.7-0.7 1.4-1.4 2-2.1 2.6-2.8 5-5.7 7.4-8.5 0.3-0.3 0.5-0.6 0.8-0.9 55.6-65.9 75.5-152.4 61.4-253.9l-11-80-2-17.2c-0 0.6-0.1 1.1-0.1 1.7l-12.4-90.1c20.3-7.8 80.4-33.4 100.7-70.2 24.6-44.6-12.1-54.5-12.1-54.5zM662.1 738.1c-20.3 22.4-60 49.5-131.2 49.8l-1.3 0c-34.8-0.1-62.2-6.5-83.7-15.7l-0 0s-8.3-2.4-22-7.8c-14.4-8.3-25.2-17.7-33.1-26.3-24.7-27.1-35.4-63.3-32.4-106.8l20.1-288.8c2.4-34.1 15.6-61 39-80.4 16.2-13.4 44.1-28.6 88.6-32.6 0.1-0.2 0.2-0.4 0.3-0.6 6.6-0.8 13.3-1.3 20-1.5 6.7 0.2 13.4 0.7 20 1.5 0.1 0.2 0.2 0.4 0.3 0.6 44.5 4 72.4 19.2 88.6 32.6 23.4 19.4 36.6 46.3 39 80.4l20.1 288.8c3 43.5-7.7 79.7-32.4 106.8z" p-id="2397"></path></svg>