<svg xmlns="http://www.w3.org/2000/svg" viewBox="0 0 1024 1024" version="1.1"><path d="M610.5 415.8c-1.6-22.7-10.4-40.6-26-53.5-10.8-8.9-29.4-19.1-59-21.7-0.1-0.1-0.1-0.3-0.2-0.4-4.4-0.6-8.9-0.9-13.3-1-4.5 0.2-8.9 0.5-13.3 1-0.1 0.1-0.1 0.3-0.2 0.4-29.6 2.7-48.2 12.8-59 21.7-15.6 12.9-24.4 30.8-26 53.5l-13.4 192.4c-2 29 5.1 53.1 21.6 71.2 5.3 5.8 12.5 12 22.1 17.6 9.1 3.5 14.6 5.2 14.6 5.2l0-0c14.3 6.1 32.5 10.4 55.7 10.4l0.9-0c47.4-0.1 73.8-18.2 87.4-33.1 16.4-18.1 23.6-42.2 21.6-71.2l-13.4-192.4zM827.8 62.1H196.2c-72.8 0-132.2 59.5-132.2 132.2v631.5c0 72.8 59.5 132.2 132.2 132.2h631.5c72.8 0 132.2-59.5 132.2-132.2V194.3c0-72.8-59.5-132.2-132.2-132.2zM797.7 401.2c-13.5 24.6-53.6 41.6-67.1 46.8l8.3 60c0-0.4 0.1-0.8 0.1-1.1l1.3 11.5 7.4 53.3c9.3 67.6-3.9 125.2-40.9 169.1-0.2 0.2-0.4 0.4-0.5 0.6-1.6 1.9-3.2 3.8-4.9 5.7-0.4 0.5-0.9 0.9-1.3 1.4-0.3 0.3-0.6 0.7-0.9 1-0.9 0.9-1.9 1.8-2.8 2.7-1.4 1.4-2.8 2.8-4.2 4.2-1.3 1.2-2.7 2.4-4.1 3.7a189 189 0 0 1-5.1 4.4c-0.8 0.6-1.6 1.3-2.4 1.9-40.4 32.2-94.9 48.4-164.9 48.4-1.1 0-2.2-0.1-3.4-0.1-1.3 0-2.5 0.1-3.8 0.1-82.9 0-144.1-22.6-185.7-67.7-41.2-44.6-56.2-104.5-46.4-175.4l7.4-53.3 1.3-11.5c0 0.4 0.1 0.8 0.1 1.1l8.3-60c-13.5-5.2-53.5-22.2-67.1-46.8-16.4-29.7 8.1-36.3 8.1-36.3l39.7-9.7s11.2-4.5 27.2-11.3a170.2 170.2 0 0 1-7.3-13.9c-6.6-14.2-6.3-15.8-10.5-31.6-1.6-13.1-4.1-26.1-2.8-39.8 1-10.9 4.8-24.8 10.2-32.1 6.1-8.3 18.7-8.5 25.1 6.1 4.5 10.4 5.6 22.3 10.5 32.6 11.7 24.4 27.5 30.8 54 41.4 34.5-19.2 76.8-28.4 129.2-28.4 0.8 0 1.6 0 2.4 0 0.8-0 1.6-0 2.4-0 53.2 0 96 9.5 130.7 29.4 27.9-11.3 44.3-20.1 56.3-45.2 4.9-10.3 5.9-22.3 10.5-32.6 6.4-14.6 19-14.4 25.1-6.1 5.4 7.3 9.2 21.2 10.2 32.1 1.3 13.7-1.2 26.7-2.8 39.8-4.3 15.8-3.9 17.5-10.5 31.6a223.6 223.6 0 0 1-9.2 17.7c14.9 6.2 25.2 10.4 25.2 10.4l39.7 9.7c0-0 24.5 6.6 8.1 36.3z" p-id="2408"></path></svg>