<svg xmlns="http://www.w3.org/2000/svg" viewBox="0 0 1024 1024" version="1.1"><path d="M224 423.8V231.7l192-0.1 0.1 192.1L224 423.8z m192.1-256.1H223.9A64 64 0 0 0 160 231.7v192.2a64 64 0 0 0 63.9 63.9h192.2A64 64 0 0 0 480 423.8V231.7a64 64 0 0 0-63.9-63.9zM224 807.8v-192.1l192-0.1 0.1 192.1L224 807.8z m192.1-256.1H223.9A64 64 0 0 0 160 615.7v192.2a64 64 0 0 0 63.9 63.9h192.2A64 64 0 0 0 480 807.8V615.7a64 64 0 0 0-63.9-63.9zM704.1 463.6l-135.8-135.8 135.7-135.8 135.9 135.7-135.8 135.9z m181-181l-135.9-135.9a64 64 0 0 0-90.4 0L522.9 282.6a63.5 63.5 0 0 0-18.7 45.1 63.5 63.5 0 0 0 18.7 45.3l135.9 135.9a63.9 63.9 0 0 0 90.4-0l135.9-135.9a63.9 63.9 0 0 0 0-90.4zM608 807.8v-192.1l192-0.1 0.1 192.1-192.1 0.1z m192.1-256.1h-192.2A64 64 0 0 0 544 615.7v192.2a64 64 0 0 0 63.9 63.9h192.2A64 64 0 0 0 864 807.8V615.7a64 64 0 0 0-63.9-63.9z" p-id="1396"></path></svg>