<svg xmlns="http://www.w3.org/2000/svg" viewBox="0 0 1024 1024" version="1.1"><path d="M416.1 167.8H223.9A64 64 0 0 0 160 231.7v192.2a64 64 0 0 0 63.9 63.9h192.2A64 64 0 0 0 480 423.9V231.7a64 64 0 0 0-63.9-63.9M885.1 282.6l-135.9-135.9a64 64 0 0 0-90.4 0L640 165.5 522.9 282.6a63.5 63.5 0 0 0-18.7 45.1 63.5 63.5 0 0 0 18.7 45.3l18.8 18.8L640 490.1l18.8 18.8a63.9 63.9 0 0 0 90.4-0l117.1-117.1 18.8-18.8a63.9 63.9 0 0 0 0-90.4M416.1 551.8H223.9A64 64 0 0 0 160 615.7v192.2a64 64 0 0 0 63.9 63.9h192.2A64 64 0 0 0 480 807.9V615.7a64 64 0 0 0-63.9-63.9M800.1 551.8h-192.2A64 64 0 0 0 544 615.7v192.2a64 64 0 0 0 63.9 63.9h192.2A64 64 0 0 0 864 807.9V615.7a64 64 0 0 0-63.9-63.9" p-id="1385"></path></svg>