<svg xmlns="http://www.w3.org/2000/svg" viewBox="0 0 1024 1024" version="1.1"><path d="M733.3 353.2l127.2-124.1a41.5 41.5 0 1 0-57.5-59.9l-127.2 124.1a41.5 41.5 0 0 0 57.5 59.9zM143.4 568.6c-0.8 14.1 4.5 27.9 14.1 38.2l235.8 252.4c46.9 46.9 88.5 0 88.5 0l319.1-319.1a83.7 83.7 0 0 0 24.5-59.2v-138.4c0.1-0.1 0 0 0.1-0.1l-53.8 53.8c-34.1 34.1-102.4 39.9-142.1-1.1-39-41.6-31.5-102.5 2.6-136.5L689.9 204.8c-4.5 0 0.6-0.1-4.5-0.1h-156.9c-21.8 0-42.8 8.5-58.4 23.8l-310.6 304.7c-11.4 12.3-15.4 24.7-16 35.4z" p-id="2364"></path></svg>