<svg xmlns="http://www.w3.org/2000/svg" viewBox="0 0 1024 1024" version="1.1"><path d="M512 832c-176.4 0-320-143.6-320-320S335.6 192 512 192s320 143.6 320 320-143.6 320-320 320m0-704C300.3 128 128 300.3 128 512s172.3 384 384 384 384-172.3 384-384S723.7 128 512 128M480 582.1v-104.7l73.1 51L480 582.1z m146.3-80.7l-160-111.6a32 32 0 0 0-44.5 8 31.5 31.5 0 0 0-4.2 26.6c-0.6 2.6-1.5 5-1.5 7.7v192c0 4 0.9 7.7 2.3 11.2a31.4 31.4 0 0 0 3.9 29.1 32 32 0 0 0 44.8 6.8l160-117.7a32 32 0 0 0-0.7-52z" p-id="1627"></path></svg>