<svg xmlns="http://www.w3.org/2000/svg" viewBox="0 0 1024 1024" version="1.1"><path d="M512 832c-176.4 0-320-143.6-320-320 0-104.4 50.5-196.9 128-255.4A318 318 0 0 1 512 192c72.1 0 138.4 24.3 192 64.6 77.5 58.5 128 151 128 255.4 0 176.4-143.6 320-320 320m192-652A381.2 381.2 0 0 0 512 128c-70 0-135.4 19.1-192 52C205.4 246.5 128 370.2 128 512c0 211.7 172.3 384 384 384s384-172.3 384-384c0-141.8-77.4-265.5-192-332M512 416a32 32 0 0 0-32 32v256a32 32 0 0 0 64 0v-256a32 32 0 0 0-32-32M512 288a32 32 0 1 0 0 64 32 32 0 0 0 0-64" p-id="1671"></path></svg>