<svg xmlns="http://www.w3.org/2000/svg" viewBox="0 0 1024 1024" version="1.1"><path d="M874.7 301.1c-1.6-2.7-3.8-5.2-6.5-7.4s-6.1-4.1-9.9-5.8c-7.7-3.8-18.6-5.8-32.8-5.8H316.5L312.3 254.5l-3.3-21.2a49.3 49.3 0 0 0-0.7-8.1c0-0.1 0-0.3-0.1-0.6a128.3 128.3 0 0 0-3.3-13l-2.4-7.5c-0.6-2.7-1.8-5.5-3.3-8.3-2.4-4.6-6.1-8.4-10.4-11.2h-0.1a54 54 0 0 0-27.1-8.9c-1.5 0-3-0.1-4.4-0.1H181.8a42.5 42.5 0 0 0-14.8 2.5c-1.3 0.4-2.7 1-3.8 1.6-11.2 5.2-18.2 16.7-18.3 29v0.3c0 2.2 0.1 4.6 0.4 7.4 0.3 2.7 0.7 5.5 1.2 8.1 0.6 2.7 1.5 5.5 2.8 8.1 0.4 0.9 0.9 1.8 1.3 2.8 2.2 5 5.2 9.8 9.2 13.6 2.1 1.9 4.1 3.8 6.4 5.5 4.4 3.3 10.4 4.9 18 4.9h38.3a21.2 21.2 0 0 1 20.9 17.2l28.7 146.6 12.3 62.7 10.7 56.2 8.3 41.6 4.1 21.2c0.9 4.1 2.2 9.9 4 17.2 1.6 6.5 4 12.7 7.1 18.8 1.9 3.8 4 7.4 6.2 10.7a56.9 56.9 0 0 0 16.4 17.2c2.2 1.6 4.4 2.8 7 3.7 2.5 0.9 5.2 1.5 8.3 2.1 3 0.6 6.1 0.7 9.5 0.7h405.5c14.2 0 23.5-3.6 28-10.7 4.9-7.1 7.4-15.5 7.4-25.3 0-20.1-12-30.2-36.1-30.2H414.1a39.8 39.8 0 0 1-39.2-32.8l-5.6-32.3h390.7c14.2 0 26.3-3.8 36.1-11.4 4.9-3.8 9.5-9 13.6-15.8s7.8-14.8 11.1-24c1.6-4.9 6.1-17.6 13.2-38.3l17.2-48.1 15.5-44.8 9.9-26.9c0.6-1.6 1-3.3 1.2-4.9 0.3-1.6 0.6-3.4 0.9-5.3s0.4-4 0.4-6.1c0.3-6.1-1.2-11.7-4.4-17.2zM739.2 728.7c-5.2-5.6-11.5-9.8-19.1-12.6-3.7-1.3-7.7-2.5-11.7-3.1a63.8 63.8 0 0 0-11.7-1c-2.8 0-5.5 0.1-8.1 0.3a47 47 0 0 0-7.7 1.5c-2.7 0.7-5 1.5-7.4 2.5-3.3 1.5-6.7 3.1-9.9 5.3a37 37 0 0 0-8.4 7.4c-5.6 5.6-9.9 11.7-12.7 18.2a37.4 37.4 0 0 0-3.8 11.2 58 58 0 0 0-1 11.2c0 8 1.6 15.4 5 22.5 2.8 6.5 7.1 12.9 12.7 18.9 4.7 4.7 10.8 8.6 18.3 12 7.1 3.3 14.8 4.9 23.4 4.9 8.4 0 16.3-1.6 23.4-4.9 7.5-2.8 13.9-6.8 19.1-12 5.6-6.1 10.2-12.4 13.5-18.9 1.5-3.3 2.5-7 3.3-10.8 0.7-4 1-7.8 1-11.5 0-8-1.5-15.4-4.3-22.5a77.1 77.1 0 0 0-13.8-18.6zM455.4 737.4c-2.1-3.1-4.6-5.9-7.4-8.7a55.7 55.7 0 0 0-19.1-12.6 66.1 66.1 0 0 0-23.4-4.3c-1.9 0-3.8 0.1-6.1 0.3a77.7 77.7 0 0 0-6.1 0.7 26.2 26.2 0 0 0-5.6 1.5c-1.9 0.7-3.7 1.3-5.6 1.8a39.6 39.6 0 0 0-7.1 3.6l-5.6 4.3a42.7 42.7 0 0 0-6.4 4.9 66.4 66.4 0 0 0-7.4 8.7 59.6 59.6 0 0 0-5.3 9.5c-2.8 7.5-4.3 15.1-4.3 22.8 0 7.7 1.5 15.1 4.3 22 2.8 6.5 7.1 12.9 12.7 18.9a72.5 72.5 0 0 0 19.1 12.6c7.1 2.8 14.8 4.3 23.4 4.3 8 0 15.7-1.5 22.9-4.6s13.8-7.1 19.4-12.3c5.6-6.1 9.9-12.4 12.7-18.9 3.3-7 4.9-14.4 4.9-22s-1.6-15.4-4.9-22.8c-1.3-3.4-3.1-6.5-5.2-9.6z" p-id="2287"></path></svg>