<svg xmlns="http://www.w3.org/2000/svg" viewBox="0 0 1024 1024" version="1.1"><path d="M288.2 631.2c3.5-1.3 86.8-31.7 223.6-31.7 136.8 0 220.1 30.4 223.6 31.7a24 24 0 0 1-16.7 45c-0.8-0.3-79.5-28.6-206.9-28.6-128.2 0-206.1 28.4-206.8 28.6a24 24 0 0 1-16.7-45m-64.3-202.3l-10.9 75.7-0.1-1.4-1.8 14.5-9.7 67.2c-12.9 89.4 6.8 165 61.2 221.2 54.9 56.8 135.6 85.3 244.8 85.3 1.7 0 3.3-0.1 5-0.1 1.5 0 2.9 0.1 4.4 0.1 92.3 0 164.2-20.5 217.4-61.1l3.1-2.4a223.7 223.7 0 0 0 12.1-10.2c1.9-1.7 3.7-3.5 5.6-5.2 1.2-1.2 2.5-2.2 3.6-3.4l1.2-1.3c0.6-0.6 1.2-1.2 1.8-1.7 2.2-2.3 4.4-4.8 6.5-7.2 0.2-0.3 0.5-0.5 0.7-0.8 48.8-55.4 66.2-128 54-213.3l-9.7-67.2-1.8-14.5-0.1 1.4-10.9-75.7c17.8-6.5 70.6-28 88.4-59 21.6-37.5-10.7-45.8-10.7-45.8l-52.3-12.2s-9.3-3.6-23.6-9.3c10.2-20.7 16.3-44.8 14.2-77.7-4-69.6-41.2-87.9-61.2-31.9-6.6 18.2-16.9 35-29.1 50.5a133.9 133.9 0 0 1-16.9 18.4l-4.2 0.2-0.3-0.1c-48.7-31.9-110.3-47.1-189.3-47.1h-6.3c-78.1 0-139.1 14.8-187.5 46a139.7 139.7 0 0 1-11.8-13.7c-12.2-15.4-22.6-32.2-29.1-50.5-20-56-57.2-37.6-61.2 31.9-1.9 29.3 2.7 51.6 11 70.8-18.9 7.6-31.7 12.5-31.7 12.5l-52.4 12.2s-32.3 8.3-10.7 45.8c17.9 31 70.6 52.5 88.4 59" p-id="2276"></path></svg>