<svg xmlns="http://www.w3.org/2000/svg" viewBox="0 0 1024 1024" version="1.1"><path d="M416.1 160H223.9A64 64 0 0 0 160 223.9v192.2A64 64 0 0 0 223.9 480h192.2A64 64 0 0 0 480 416.1V223.9A64 64 0 0 0 416.1 160M416.1 544H223.9A64 64 0 0 0 160 607.9v192.2A64 64 0 0 0 223.9 864h192.2A64 64 0 0 0 480 800.1v-192.2A64 64 0 0 0 416.1 544M800.1 160h-192.2A64 64 0 0 0 544 223.9v192.2A64 64 0 0 0 607.9 480h192.2A64 64 0 0 0 864 416.1V223.9A64 64 0 0 0 800.1 160M704 608a32 32 0 0 0-32 32v192a32 32 0 1 0 64 0v-192a32 32 0 0 0-32-32M576 608a32 32 0 0 0-32 32v192a32 32 0 1 0 64 0v-192a32 32 0 0 0-32-32M832 544a32 32 0 0 0-32 32v256a32 32 0 1 0 64 0v-256a32 32 0 0 0-32-32" p-id="1682"></path></svg>