<svg xmlns="http://www.w3.org/2000/svg" viewBox="0 0 1024 1024" version="1.1"><path d="M182.8 323.6l-11.3 18.4c1-2 3.1-3.6 4.1-5.6l1.5-3.1 5.6-9.7zM500.2 272.9l229.9 129c-6.1 2.6-11.8 5.1-17.9 8.7l-214.5 126L264.2 404.5l236-131.6m0-71.7c-5.6 0-11.8 1.5-16.4 5.1l-304.1 169c-3.1 1.5-6.1 4.1-8.7 7.2-8.2 9.2-11.8 18.4-10.2 28.2 1 7.2 5.6 12.8 11.3 17.4 4.1 3.1 9.2 6.7 13.3 8.7L481.3 604.2c5.1 3.1 10.8 5.1 16.4 5.1s11.8-1.5 16.4-5.1l231.9-135.7c7.2-4.1 13.8-6.1 20-6.1 8.2 0 15.9 4.1 21.5 12.8 0.5 0.5 1 1 2 2.6 2.6 3.6 4.6 14.3 4.6 20v135.2c0 20 17.9 33.3 37.9 33.3 20 0 33.3-13.3 33.3-32.8V421.9c0-13.3-6.7-23-16.4-29.7L517.1 206.3c-5.1-3.6-10.8-5.1-16.9-5.1z m287.2 273.4zM307.2 608.3c-11.3 0-21.5 6.7-28.2 17.9-0.5 1-1 1.5-1.5 2.6-2.6 3.6-2.6 10.2-2.6 16.4v16.9c0 13.8 6.7 24.6 15.9 31.2l193.5 120.3c4.6 3.6 10.2 5.1 15.9 5.1s11.3-1.5 15.9-5.1l193.5-120.3c9.7-7.2 15.9-17.4 15.9-31.2V645.1c0-21-12.8-34.8-32.3-34.8-6.7 0-9.7 0-15.9 3.6L516.1 716.8c-4.6 3.6-10.2 5.1-15.9 5.1s-11.3-1.5-15.9-5.1l-161.3-102.9c-5.1-4.1-10.8-5.6-15.9-5.6z" p-id="2419"></path></svg>