<svg xmlns="http://www.w3.org/2000/svg" viewBox="0 0 1024 1024" version="1.1"><path d="M256 831.9V305.2l213.8 95c12.2 5.4 27.2 8.2 42.2 8.2 15 0 30-2.7 42.2-8.1l213.9-95 0.2 526.7L256 832zM768 192.1V235.2l-239.8 106.6c-7.9 3.5-24.5 3.5-32.4 0L256 235.2V192.1L255.8 192 768 192.1zM768.2 128H255.8A64 64 0 0 0 192 192.1v639.8A64 64 0 0 0 255.8 896h512.4A64 64 0 0 0 832 831.9V192.1A64 64 0 0 0 768.2 128zM608 620.8a22.4 22.4 0 1 0 0-44.8h-64.4l0.2-0.2 64-64a22.4 22.4 0 1 0-31.7-31.7l-64 64-0.2 0.2-0.2-0.2-64-64a22.4 22.4 0 0 0-31.7 31.7l64 64 0.2 0.2H416a22.4 22.4 0 1 0 0 44.8h73.6V672H416a22.4 22.4 0 1 0 0 44.8h73.6v19.2a22.4 22.4 0 1 0 44.8 0v-19.2H608a22.4 22.4 0 1 0 0-44.8h-73.6v-51.2H608z" p-id="1715"></path></svg>