<svg xmlns="http://www.w3.org/2000/svg" viewBox="0 0 1024 1024" version="1.1"><path d="M607.8 480.1a22.4 22.4 0 0 1 0 31.7l-64 64-0.2 0.2H608a22.4 22.4 0 0 1 0 44.8h-73.6v51.2H608a22.4 22.4 0 0 1 0 44.8h-73.6v19.2a22.4 22.4 0 1 1-44.8 0v-19.2H416a22.4 22.4 0 1 1 0-44.8h73.6v-51.2H416a22.4 22.4 0 1 1 0-44.8h64.4l-0.2-0.2-64-64a22.4 22.4 0 1 1 31.7-31.7l64 64 0.2 0.2 0.2-0.2 64-64a22.4 22.4 0 0 1 31.7 0M512 408.4c-15 0-30-2.7-42.2-8.1l-277.8-123.7v555.3A64 64 0 0 0 255.7 896h512.4A64 64 0 0 0 832 831.9V274.8l-277.8 125.4c-12.2 5.4-27.2 8.2-42.2 8.2M768.2 128H255.8A64 64 0 0 0 192 192.1v14.5l303.8 135.2c7.9 3.5 24.6 3.5 32.4 0L832 204.6v-12.5A64 64 0 0 0 768.2 128" p-id="1704"></path></svg>