<svg xmlns="http://www.w3.org/2000/svg" viewBox="0 0 1024 1024" version="1.1"><path d="M612.6 718.6H244.9c21-44.4 49.2-112.6 49.2-158v-160.6C294.1 285.2 391.8 192 512 192c120.2 0 217.9 93.2 217.9 207.9v158.3c0 46 28.4 115.4 49.4 160.3h-166.8z m-100.6 96c-24.7 0-46.1-13-57.7-32h115.5c-11.6 19-33 32-57.7 32z m346.1-81.1l2.2-1.1c-17.7-33.1-63.4-129-63.4-174.2v-158.3C797 250 669.1 128 512 128c-157.1 0-285 122-285 271.9v160.7c0 39.5-38.8 126.3-63.3 171.7l2.2 1.1a30.2 30.2 0 0 0-6 17.2c0 17.7 15 32 33.5 32h189.1c15 55 67.1 96 129.3 96 62.3 0 114.3-41 129.3-96h189.1c18.5 0 33.5-14.3 33.5-32a30.4 30.4 0 0 0-5.9-17.1z" p-id="1748"></path></svg>