<svg xmlns="http://www.w3.org/2000/svg" viewBox="0 0 1024 1024" version="1.1"><path d="M224 832.2V320l576-0.2L800.3 832 224 832.2zM512 160c52.9 0 96 43 96 96h-192c0-53 43.1-96 96-96z m288.3 96H672c0-88.2-71.8-160-160-160s-160 71.8-160 160H223.7A63.8 63.8 0 0 0 160 319.8v512.4C160 867.4 188.6 896 223.7 896h576.5A63.9 63.9 0 0 0 864 832.2V319.8A63.8 63.8 0 0 0 800.3 256zM700.6 612.3a32 32 0 0 0-43.7 11.7A160.6 160.6 0 0 1 518.3 704a160.6 160.6 0 0 1-138.6-80 32 32 0 0 0-55.4 32 224.9 224.9 0 0 0 194 112 224.8 224.8 0 0 0 194-112 32 32 0 0 0-11.7-43.7" p-id="1836"></path></svg>