<svg xmlns="http://www.w3.org/2000/svg" viewBox="0 0 1024 1024" version="1.1"><path d="M835.3 504.8c0-29.7-14.9-57.4-39-75.1-9.9-6.4-22.7-4.2-29.7 5.7-6.4 9.9-4.2 22.7 5.7 29.7 12.7 9.2 21.2 24.1 21.2 39.7 0 15.6-7.8 30.5-21.2 39.7-9.9 6.4-12 19.8-5.7 29.7 4.2 5.7 10.6 9.2 17.7 9.2 4.2 0 8.5-1.4 12-3.5 24.1-17.7 39-45.3 39-75.1zM834.9 358.2c-9.9-6.4-22.7-4.2-29.7 5.7-6.4 9.9-4.2 22.7 5.7 29.7 36.8 25.5 58.1 67.3 58.1 111.2 0 44.6-22 86.4-58.1 111.2-9.9 6.4-12 19.8-5.7 29.7 4.2 5.7 10.6 9.2 17.7 9.2 4.2 0 8.5-1.4 12-3.5 48.2-34 76.5-88.5 76.5-146.6s-28.3-113.3-76.5-146.6zM265.1 468.7c9.9-6.4 12-19.8 5.7-29.7-6.4-9.9-19.8-12-29.7-5.7-24.8 17.7-40.4 46-40.4 76.5s14.9 59.5 40.4 76.5c3.5 2.8 7.8 3.5 12 3.5 7.1 0 13.5-3.5 17.7-9.2 6.4-9.9 4.2-22.7-5.7-29.7a50.7 50.7 0 0 1-22-41.8c0-15.6 8.5-31.2 22-40.4zM221.2 625.9C182.9 599.7 160.3 556.5 160.3 510.5s22.7-89.2 60.9-115.4c9.9-6.4 12-19.8 5.7-29.7-6.4-9.9-19.8-12-29.7-5.7C147.5 393.6 117.8 450.3 117.8 510.5s29.7 116.2 78.6 150.9c3.5 2.8 7.8 3.5 12 3.5 7.1 0 13.5-3.5 17.7-9.2 7.1-9.9 4.2-23.4-5-29.7zM631.8 685.4l-285.1-51.9 72-395.6 285.1 51.7-71.9 395.8-0.1-0z m-141.8 89.6l-42.1-7.7a21.4 21.4 0 0 1 7.7-42.1l42.1 7.7a21.4 21.4 0 0 1-7.7 42.1z m227.3-532.9l-294.5-53.6a42.8 42.8 0 0 0-49.7 34.2L275.7 757.9a42.8 42.8 0 0 0 34.5 49.6l294.5 53.6a42.8 42.8 0 0 0 49.7-34.2L751.7 291.7a42.8 42.8 0 0 0-34.5-49.6z" p-id="2375"></path></svg>