<svg xmlns="http://www.w3.org/2000/svg" viewBox="0 0 1024 1024" version="1.1"><path d="M736 800c-35.3 0-64-28.7-64-64s28.7-64 64-64 64 28.7 64 64-28.7 64-64 64M288 576c-35.3 0-64-28.7-64-64s28.7-64 64-64 64 28.7 64 64-28.7 64-64 64M736 224c35.3 0 64 28.7 64 64s-28.7 64-64 64-64-28.7-64-64 28.7-64 64-64m0 384a127.8 127.8 0 0 0-115.2 73.3l-204.9-117.1a30.8 30.8 0 0 0-9.7-3.2A127.7 127.7 0 0 0 416 512c0-6.7-1-13.1-2-19.5 0.6-0.3 1.3-0.4 1.9-0.8l219.6-125.5A127.3 127.3 0 0 0 736 416c70.6 0 128-57.4 128-128s-57.4-128-128-128-128 57.4-128 128c0 6.7 1 13.2 2 19.6-0.6 0.3-1.3 0.3-1.9 0.6l-219.6 125.5A127.3 127.3 0 0 0 288 384c-70.6 0-128 57.4-128 128s57.4 128 128 128a126.9 126.9 0 0 0 84.5-32.6 31.2 31.2 0 0 0 11.6 12.4l224 128c0.4 0.2 0.7 0.3 1.1 0.4C615.5 813 669.6 864 736 864c70.6 0 128-57.4 128-128s-57.4-128-128-128" p-id="1880"></path></svg>