<svg xmlns="http://www.w3.org/2000/svg" viewBox="0 0 1024 1024" version="1.1"><path d="M512.6 768H223.9A31.9 31.9 0 0 1 192 736.2L192.1 256h608.2c17.5 0 31.7 14.4 31.7 32.1v161.9a32 32 0 0 0 64 0V288.1A96 96 0 0 0 800.3 192H192.1A64 64 0 0 0 128 255.8v480.4A96 96 0 0 0 223.9 832h288.7a32 32 0 0 0 0-64M416 512H288a32 32 0 0 0 0 64h128a32 32 0 0 0 0-64M416 640H288a32 32 0 0 0 0 64h128a32 32 0 0 0 0-64M544 384H288a32 32 0 0 0 0 64h256a32 32 0 0 0 0-64M768 832c-70.6 0-128-57.4-128-128 0-23.7 6.9-45.6 18.1-64.6l174.5 174.5A126.3 126.3 0 0 1 768 832m0-256c70.6 0 128 57.4 128 128 0 23.7-6.9 45.6-18.1 64.6l-174.5-174.5A126.3 126.3 0 0 1 768 576m0-64c-105.9 0-192 86.1-192 192s86.1 192 192 192 192-86.1 192-192-86.1-192-192-192" p-id="1902"></path></svg>