<svg xmlns="http://www.w3.org/2000/svg" viewBox="0 0 1024 1024" version="1.1"><path d="M768 512c-41.4 0-79.7 13.3-111.1 35.7l267.4 267.4A190.8 190.8 0 0 0 960 704c0-105.9-86.1-192-192-192M576 704c0 105.9 86.1 192 192 192 41.4 0 79.7-13.3 111.1-35.7l-267.4-267.4A190.5 190.5 0 0 0 576 704M416 576H288a32 32 0 1 1 0-64h128a32 32 0 1 1 0 64m0 128H288a32 32 0 1 1 0-64h128a32 32 0 1 1 0 64M288 384h256a32 32 0 1 1 0 64H288a32 32 0 1 1 0-64m480.5 62.9c46.5 0 89.9 12.5 127.5 34.1V255.8A64 64 0 0 0 831.9 192H192.1A64 64 0 0 0 128 255.8v512.4A64 64 0 0 0 192.1 832H545.8a255.3 255.3 0 0 1-34.4-128 257.1 257.1 0 0 1 257.1-257.1" p-id="1891"></path></svg>