<svg xmlns="http://www.w3.org/2000/svg" viewBox="0 0 1024 1024" version="1.1"><path d="M815.4 280.5H206.5L143.3 445.9c0 49.5 41.1 90.6 91.7 90.6s92.7-40 92.7-90.6c0 49.5 41.1 90.6 91.7 90.6S512 496.5 512 445.9c0 49.5 41.1 90.6 91.7 90.6s91.7-40 91.7-90.6c0 49.5 41.1 90.6 92.7 90.6 50.6 0 92.7-40 92.7-90.6L815.4 280.5z m-50.6 284.4v210.7H259.2v-210.7H206.5v221.2c0 19 21.1 42.1 40 42.1h529.9c19 0 40-23.2 40-42.1v-221.2h-51.6z m50.6-285.5l2.1 1.1-2.1-1.1zM248.6 238.4h526.7c17.9 0 31.6-13.7 31.6-31.6s-13.7-31.6-31.6-31.6H248.6c-17.9 0-31.6 13.7-31.6 31.6s13.7 31.6 31.6 31.6z" p-id="2298"></path></svg>