<svg xmlns="http://www.w3.org/2000/svg" viewBox="0 0 1024 1024" version="1.1"><path d="M846.3 332.3s-6.1-7.7-8.2-9.2c-14.8-11.8-24.6-16.9-44-27.6l-7.2-4.1L686.1 235.5l-105-58.4c-20-10.8-43.5-17.4-69.1-17.4s-49.2 6.1-70.1 17.4L335.4 235.5 238.6 288.3 209.9 304.1c-14.3 7.7-25.6 18.9-33.8 32.3-9.7 14.3-15.9 31.2-15.9 49.7v245.8c0 34.3 20 64.5 49.2 80.9l29.7 15.9L462.3 849.9c14.3 7.7 31.2 12.3 49.7 12.3s35.3-4.6 50.2-12.8l224.3-121.9 27.6-14.8c29.7-16.4 49.7-46.6 49.7-81.4v-245.8c0-20-6.7-38.4-17.4-53.2z m-551.9-5.1l137.7-72.7 33.8-17.9c14.3-7.7 26.1-12.8 44.5-12.8s40.4 10.8 55.3 18.9l23.6 11.8 136.7 74.8c7.2 5.1 7.2 5.1 6.1 8.2l-220.2 113.7-225.8-115.7c-1.5-2.6 5.1-7.2 8.2-8.2z m167.4 449l-209.4-116.2-0.5-0.5c-18.4-11.3-29.7-21-29.7-43.5V385c0-1-1-6.7 0.5-11.3 0.5-0.5 1-1 2-0.5l25.6 13.3 66.6 35.3-0.5 90.6c0 6.1 3.6 11.8 8.7 14.8l40.4 21.5c6.7 3.6 14.3-1 14.3-8.7V453.6l98.3 50.7-0.5 280.1c-11.3-4.1-10.8-5.1-15.9-8.2zM798.7 372.2c5.6 2 3.6 4.6 3.6 12.8v231.4c0 23.6-9.7 33.3-27.6 44l-5.6 3.1-208.4 113.7c-5.1 3.1-3.6 3.1-14.3 8.2 0-71.2-0.5-215-0.5-280.1M219.1 370.2l304.1 157.7M182.8 323.6l-11.3 18.4c1-2 3.1-3.6 4.1-5.6l1.5-3.1 5.6-9.7z" p-id="2430"></path></svg>