<svg xmlns="http://www.w3.org/2000/svg" viewBox="0 0 1024 1024" version="1.1"><path d="M512 320c23.6 0 44-13 55.1-32 5.5-9.4 8.9-20.3 8.9-32a64 64 0 1 0-128 0c0 11.7 3.4 22.6 8.9 32 11.1 19 31.5 32 55.1 32M512 448c-23.6 0-44 13-55.1 32A63.6 63.6 0 0 0 448 512c0 11.7 3.4 22.6 8.9 32 11.1 19 31.5 32 55.1 32 23.6 0 44-13 55.1-32 5.5-9.4 8.9-20.3 8.9-32s-3.4-22.6-8.9-32c-11.1-19-31.5-32-55.1-32M512 704c-23.6 0-44 13-55.1 32A63.6 63.6 0 0 0 448 768a64 64 0 1 0 128 0c0-11.7-3.4-22.6-8.9-32-11.1-19-31.5-32-55.1-32" p-id="1990"></path></svg>