<svg xmlns="http://www.w3.org/2000/svg" viewBox="0 0 1024 1024" version="1.1"><path d="M746.9 309.9a30.4 30.4 0 0 0-42.1 9.3 31.4 31.4 0 0 0 8.9 43c1.1 0.7 10.4 7.3 22.3 20.3 24.3 26.6 59.5 80.7 59.5 171.4 0 94.1-36.3 149-59.5 174.5-10.2 11.2-17.9 16.8-18.8 17.4a31.4 31.4 0 0 0-8.5 43.2c5.9 9 15.6 13.8 25.5 13.8 0.6 0 1.2-0.2 1.8-0.3a30.5 30.5 0 0 0 15.2-5c4.3-2.9 105.6-73.4 105.6-243.7 0-170.6-105.4-241-109.9-243.9M651.5 401.2a30.3 30.3 0 0 0-40.4 14.6 31.6 31.6 0 0 0 14 41.5c1.9 1 47.9 25.2 47.9 94.2 0 73.7-42.9 98.1-44.4 98.9a31.3 31.3 0 0 0-13.8 41.8 30.7 30.7 0 0 0 41.2 14c3.2-1.7 78.2-41.1 78.2-154.6 0-109.6-79.4-148.7-82.7-150.3M550 195.4a43.8 43.8 0 0 0-10.2-2.9c-10.2-1.6-25.1-0.3-41 14.3l-34.6 31.5-16.2 14.8-101.6 92.4H223.7a63.9 63.9 0 0 0-63.7 64v205.5c0 35.3 28.6 64 63.7 64h85.6L448 804.9l50.8 46.2c12.9 11.6 25 14.9 34.6 14.9 2.4 0 4.4-0.4 6.4-0.8a44.5 44.5 0 0 0 10.3-2.7c7.8-3.5 25.9-14.8 25.9-45.4V240.7c0-0.9-0.3-1.6-0.3-2.4-0.7-19.9-10.1-35.9-25.7-42.8" p-id="2001"></path></svg>