<svg xmlns="http://www.w3.org/2000/svg" viewBox="0 0 1024 1024" version="1.1"><path d="M832.5 257.1H704.3v-85.5c0-33-28.9-42.7-64-42.7H383.7c-35.1 0-64 9.5-64 42.7v85.5h-128.1c-35.7 0-64.2 28.6-64.2 64.1v480.7c0 35.2 28.8 64.1 64.2 64.1h640.8c35.7 0 64.2-28.6 64.2-64.1V321.2c-0-35.2-28.8-64.1-64.2-64.1zM383.8 193h256.4v64.1H383.8v-64.1z m-192.2 128.2s640.9 0.1 640.9-0c0 0 0 56 0 129.7-2.5-0.6-4.9-1.5-7.7-1.5H191.5c-0 0-0 0-0 0 0-73 0-128.2 0.1-128.2zM567.2 513.5c-11.1 19.1-31.5 32-55.2 32-23.7 0-44.1-13-55.21-32h110.4z m265.2 288.4s-640.9-0.1-640.9 0c0 0-0-154.6-0-288.5 0 0 0 0 0 0h196.8C402.7 568.7 452.4 609.6 512 609.6S621.4 568.7 635.7 513.5h189.2c2.7 0 5.2-0.9 7.7-1.5 0 134.2 0 290-0.1 290z" p-id="2067"></path></svg>