<svg xmlns="http://www.w3.org/2000/svg" viewBox="0 0 1024 1024" version="1.1"><path d="M666.3 473.5l-175.6 192c-6.1 6.6-14.7 10.4-23.6 10.4h-0.2a32.1 32.1 0 0 1-23.7-10.7l-85.7-96a32 32 0 1 1 47.7-42.6l62.1 69.6 151.7-165.9a32 32 0 0 1 47.3 43.2m133.6-312.3H736c-0.1 0 0 20.5 0 32.3v63.4a64.2 64.2 0 0 1-63.8 64.4h-320.3A64.2 64.2 0 0 1 288 256.9v-63.4c0-11.8-0.1-21.5-0.1-32.3H223.7A63.8 63.8 0 0 0 160 225v576.5c0 35.2 28.6 63.7 63.7 63.7H800.3A63.8 63.8 0 0 0 864 801.5V225c0-35.1-28.8-63.7-64.1-63.7M668.6 149.4a42.6 42.6 0 0 0-36.8-21.4H395.8c-15.8 0-29.4 8.6-36.9 21.4a43.1 43.1 0 0 0-6 21.7v42.5c0 23.8 19.2 43.2 42.9 43.2h236c23.6 0 42.8-19.4 42.8-43.2V171.1c0-8-2.3-15.3-6-21.7" p-id="2045"></path></svg>