<svg xmlns="http://www.w3.org/2000/svg" viewBox="0 0 1024 1024" version="1.1"><path d="M567.1 512c-11.1 19-31.5 32-55.1 32a63.7 63.7 0 0 1-55.1-32h110.2zM384 256h256V192h-256v64z m447.9 0H704V170.6C704 150 687.2 128 640.2 128h-256.3C336.8 128 320 150 320 170.6V256H192.1A64.1 64.1 0 0 0 128 320v129.5h768V320c0-35.3-28.7-64-64.1-64zM832 510.5c-2.5 0.6-4.9 1.5-7.6 1.5h-188.9c-14.3 55-64 96-123.5 96-59.5 0-109.1-41-123.5-96H128v288c0 35.3 28.8 64 64.1 64h639.8A64.1 64.1 0 0 0 896 800v-288h-64v-1.5z" p-id="2056"></path></svg>