<svg xmlns="http://www.w3.org/2000/svg" viewBox="0 0 1024 1024" version="1.1"><path d="M732.2 450h-12.3V377.9c0-37.9-31.7-69.1-70.7-69.1h-73.2c1-7.2 1-14.8 1-22 0-75.8-63-137.7-140.3-137.7S296.4 210.9 296.4 286.7c0 7.2 0 14.8 1 22H224.3c-38.9 0-70.7 31.2-70.7 69.1v102.4c0 9.2 3.6 15.9 10.8 21.5 7.2 5.6 14.8 7.2 23.6 5.6 7.7-1.5 16.4-3.1 22.5-3.1 46.1 0 85 38.4 85 83.5 0 46.1-37.9 83.5-85 83.5-6.7 0-14.8-1.5-22.5-3.1-7.7-2-16.9 0.5-23.6 5.6-7.2 5.1-10.8 12.3-10.8 21.5v102.4c0 37.9 31.7 69.1 70.7 69.1H650.2c19.5 0 38.4-8.2 51.7-22 12.3-13.3 18.4-29.7 17.9-47.1v-72.2h12.3c77.3 0 140.3-62 140.3-137.7 0-75.8-63-137.7-140.3-137.7z m-66 239.6v106c0 8.2-7.2 15.4-15.9 15.4H224.8c-8.7 0-15.9-6.7-15.9-15.4v-70.7c0.5 0 1.5 0 2-0.5 77.3-0.5 139.8-62 139.8-137.7 0-37.4-14.8-72.7-42-98.8-27.1-26.1-63-39.9-100.4-38.9V378.4c0-8.2 7.2-15.4 15.9-15.4h110.1c8.7 0 17.9-4.6 23.6-12.3 4.6-6.7 5.6-15.4 2-25.1-5.1-11.3-8.2-24.1-8.2-36.4 0-46.1 37.9-83.5 85-83.5 46.1 0 85 38.4 85 83.5 0 10.8-1 23-7.7 35.8-4.6 7.7-3.6 18.4 1.5 25.6 5.1 6.1 13.8 12.3 23.6 12.3H650.2c8.7 0 15.9 6.7 15.9 15.4v107.5c0 9.2 3.6 15.9 10.8 21.5 7.7 5.6 16.9 6.7 25.6 3.1 8.2-4.1 17.4-6.1 28.7-6.1 46.1 0 85 38.4 85 83.5 0 46.1-37.9 83.5-85 83.5-8.2 0-17.4-3.1-26.1-5.6l-3.1-1c-10.2-2.6-18.4-1.5-25.1 3.6-6.7 3.1-10.8 11.3-10.8 21.5z" p-id="2441"></path></svg>