<svg xmlns="http://www.w3.org/2000/svg" viewBox="0 0 1024 1024" version="1.1"><path d="M541.3 575.5V513.7h92.7c15.6 0 28.2-12.1 28.2-27s-12.6-27-28.2-27h-81l0.2-0.2 80.6-77.1c11-10.5 11-27.6 0-38.2s-28.9-10.5-39.9 0l-80.6 77.2-0.2 0.2-0.2-0.2-80.6-77.2c-11-10.5-28.9-10.5-39.9 0s-11 27.6 0 38.2l80.6 77.1 0.2 0.2H392.2c-15.6 0-28.2 12.1-28.2 27s12.6 27 28.2 27h92.7v61.7H392.2c-15.6 0-28.2 12.1-28.2 27s12.6 27 28.2 27h92.7v23.1c0 14.9 12.6 27 28.2 27s28.2-12.1 28.2-27v-23.1h92.7c15.6 0 28.2-12.1 28.2-27s-12.6-27-28.2-27h-92.7zM284.8 234L442.4 177.8c38.4-13.7 100.7-13.7 139.2 0l157.6 56.3c38.4 13.7 69.6 58.1 69.6 99.2v232.8c0 182.5-296.8 290.4-296.8 290.4s-296.8-108-296.8-290.4V333.2c0-41.5 31.2-85.5 69.6-99.2z" p-id="2309"></path></svg>