<svg xmlns="http://www.w3.org/2000/svg" viewBox="0 0 1024 1024" version="1.1"><path d="M410.2 319.8a96 96 0 0 1 192 0v192.4a96 96 0 0 1-96 95.7 96 96 0 0 1-96-95.7V319.8z m96 352.2c88.2 0 160-71.6 160-159.7V319.8a160.1 160.1 0 0 0-160-159.8c-88.2 0-160 71.7-160 159.8v192.4a160 160 0 0 0 160 159.7zM742.4 448a32 32 0 0 0-32 32v24.7c0 116.2-94.7 210.7-211.2 210.7-116.4 0-211.2-94.5-211.2-210.7V480a32 32 0 0 0-64 0v24.7c0 140.2 105.8 255.9 241.8 272.4V864a32 32 0 0 0 64 0v-86.4c137.4-15.3 244.6-131.7 244.6-272.9V480a32 32 0 0 0-32-32" p-id="2122"></path></svg>