<svg xmlns="http://www.w3.org/2000/svg" viewBox="0 0 1024 1024" version="1.1"><path d="M832 288h-128V202.6C704 182 687.2 160 640.1 160h-256.3C336.8 160 320 182 320 202.6V288H192a32 32 0 0 0 0 64h224l192 0V352h224a32 32 0 0 0 0-64zM384 448a32 32 0 0 1 64 0v210.5a32 32 0 0 1-64 0V448z m192 0a32 32 0 0 1 64 0v210.5a32 32 0 0 1-64 0V448z m32-47.1H224v399.1c0 20.7 10 38.8 25.2 50.6 10.8 8.3 24.2 13.5 38.8 13.5h447.9c14.7 0 28.1-5.2 38.9-13.5 15.2-11.7 25.2-29.9 25.2-50.6V400.9h-192z" p-id="2144"></path></svg>