<svg xmlns="http://www.w3.org/2000/svg" viewBox="0 0 1024 1024" version="1.1"><path d="M736 352L736.1 800h-0.1L288 800 288 352 736 352zM384 224h256v64h-256V224z m448 64h-128V202.6C704 182 687.2 160 640.2 160h-256.3C336.8 160 320 182 320 202.6V288H192a32 32 0 1 0 0 64h32V800C224 835.3 252.7 864 288 864h447.9A64.1 64.1 0 0 0 800 800V352h32a32 32 0 1 0 0-64zM608 690.6a32 32 0 0 0 32-32V448a32 32 0 1 0-64 0v210.6a32 32 0 0 0 32 32M416 690.6a32 32 0 0 0 32-32V448a32 32 0 1 0-64 0v210.6a32 32 0 0 0 32 32" p-id="2133"></path></svg>