<svg xmlns="http://www.w3.org/2000/svg" viewBox="0 0 1024 1024" version="1.1"><path d="M864 643.3l-77.5-53.1v-125.4L864 412.3v231zM192 736V288L192 288 512 288h210.5v158.4c-0 0.5-0.2 1-0.2 1.5v256c0 0.4 0.2 0.7 0.2 1.1V736L192 736z m719-412.2a32 32 0 0 0-33 1.8l-91.6 62v-99.5A64.1 64.1 0 0 0 722.5 224H192A64.1 64.1 0 0 0 128 288V736C128 771.3 156.7 800 192 800h530.6a64.1 64.1 0 0 0 64-64v-42.6l0.4-25.3 91 62.3A32 32 0 0 0 928 704V352a32 32 0 0 0-17-28.3zM304 352a48 48 0 1 0 0 96A48 48 0 0 0 304 352" p-id="2188"></path></svg>