<svg xmlns="http://www.w3.org/2000/svg" viewBox="0 0 1024 1024" version="1.1"><path d="M347.4 124s31.8 51.9 37.8 110.4c-143.4 46.2-246.4 172.6-246.4 321.6 0 188 164.2 340.4 366.7 340.4 202.5 0 366.7-152.4 366.7-340.4 0-176-143.8-320.7-328.2-338.5-69.3-52.9-196.6-93.4-196.6-93.4z m194 454.1c-24.9 0-46.5 1.2-68.8 1.5 22.3-53.9 7-119.4-22.1-137.2 26.3-9.2 39.3-15.5 68-23.5 41.8 36.6 41.2 127.5 23 159.2z m192.7-22.8c-25.1 0-41.4 1.5-68.8 1.5 30.1-58.2 11.6-116.6-22.2-137.2 25.9-10.9 39.4-15.5 68-23.5 45.5 38.9 41.3 127.5 23.1 159.2z" p-id="2342"></path></svg>