<svg xmlns="http://www.w3.org/2000/svg" viewBox="0 0 1024 1024" version="1.1"><path d="M522.7 388.1a32 32 0 0 0-32 32v160a32 32 0 0 0 64 0v-160a32 32 0 0 0-32-32M522.7 676.1a32 32 0 1 0 0 64 32 32 0 0 0 0-64M714.7 795.6H203.1l127.6-221.9 33.2-57.7 158.8-276.2 158.8 276.2 33.2 57.7 127.6 221.9h-127.6z m194.5-12L566.5 187.7c-10.1-17.6-26.1-27.7-43.9-27.7s-33.7 10.1-43.8 27.7L136.1 783.6c-10 17.6-10.8 36.5-1.9 51.8 8.9 15.3 25.6 24.1 45.8 24.1H865.3c20.2 0 36.9-8.8 45.8-24.1 8.9-15.4 8.2-34.2-1.9-51.8z" p-id="2221"></path></svg>