<svg xmlns="http://www.w3.org/2000/svg" viewBox="0 0 1024 1024" version="1.1"><path d="M322.1 296.5c-12.8-12.8-32-12.8-44.8 0l-192 192c-12.8 12.8-12.8 32 0 44.8l192 192c6.4 6.4 14.9 8.5 23.5 8.5s17.1-2.1 23.5-8.5c12.8-12.8 12.8-32 0-44.8L151.5 512l168.5-168.5c12.8-12.8 12.8-34.1 2.1-46.9zM940.8 488.5l-192-192c-12.8-12.8-32-12.8-44.8 0-12.8 12.8-12.8 32 0 44.8l168.5 168.5-168.5 168.5c-12.8 12.8-12.8 32 0 44.8 6.4 6.4 14.9 8.5 23.5 8.5s17.1-2.1 23.5-8.5l192-192c8.5-8.5 8.5-29.9-2.1-42.7zM622.9 76.8c-17.1-4.3-34.1 6.4-38.4 23.5L366.9 902.4c-4.3 17.1 6.4 34.1 23.5 38.4 2.1 0 6.4 2.1 8.5 2.1 14.9 0 27.7-8.5 29.9-23.5L644.3 115.2c4.3-17.1-4.3-34.1-21.3-38.4z" p-id="778"></path></svg>