<svg xmlns="http://www.w3.org/2000/svg" viewBox="0 0 1024 1024" version="1.1"><path d="M874.7 181.3H149.3c-40.5 0-74.7 34.1-74.7 74.7v512c0 40.5 34.1 74.7 74.7 74.7h725.3c40.5 0 74.7-34.1 74.7-74.7V256c0-40.5-34.1-74.7-74.7-74.7z m-725.3 64h725.3c6.4 0 10.7 4.3 10.7 10.7v25.6L512 516.3l-373.3-234.7V256c0-6.4 4.3-10.7 10.7-10.7z m725.3 533.3H149.3c-6.4 0-10.7-4.3-10.7-10.7V356.3l356.3 224c4.3 4.3 10.7 4.3 17.1 4.3s12.8-2.1 17.1-4.3l356.3-224V768c0 6.4-4.3 10.7-10.7 10.7z" p-id="1097"></path></svg>