<svg xmlns="http://www.w3.org/2000/svg" viewBox="0 0 1024 1024" version="1.1"><path d="M861.9 164.3c-87.5-87.5-230.4-89.6-320-2.1l-68.3 68.3c-12.8 12.8-12.8 32 0 44.8s32 12.8 44.8 0l68.3-68.3c64-61.9 166.4-61.9 230.4 2.1 64 64 64 168.5 2.1 232.5l-117.3 119.5c-34.1 34.1-81.1 51.2-128 49.1-46.9-4.3-91.7-27.7-119.5-66.1-10.7-14.9-29.9-17.1-44.8-6.4-14.9 10.7-17.1 29.9-6.4 44.8 40.5 53.3 100.3 87.5 166.4 91.7h17.1c59.7 0 119.5-23.5 162.1-68.3l117.3-119.5c83.2-89.6 83.2-234.7-4.3-322.1zM505.6 750.9l-66.1 68.3c-64 61.9-166.4 61.9-230.4-2.1-64-64-64-168.5-2.1-232.5l117.3-119.5c34.1-34.1 81.1-51.2 128-49.1 46.9 4.3 91.7 27.7 119.5 66.1 10.7 14.9 29.9 17.1 44.8 6.4 14.9-10.7 17.1-29.9 6.4-44.8-40.5-53.3-100.3-87.5-166.4-91.7-66.1-4.3-130.1 19.2-177.1 66.1l-117.3 119.5c-85.3 89.6-85.3 234.7 2.1 322.1 44.8 44.8 102.4 66.1 162.1 66.1 57.6 0 115.2-21.3 160-64l66.1-68.3c12.8-12.8 12.8-32 0-44.8-14.9-10.7-34.1-10.7-46.9 2.1z" p-id="1328"></path></svg>