<svg xmlns="http://www.w3.org/2000/svg" viewBox="0 0 1024 1024" version="1.1"><path d="M785.1 416h-61.9v-121.6c0-108.8-91.7-198.4-202.7-198.4s-202.7 89.6-202.7 198.4v121.6h-78.9c-55.5 0-100.3 44.8-100.3 100.3v311.5c0 55.5 44.8 100.3 100.3 100.3h546.1c55.5 0 100.3-44.8 100.3-100.3V516.3c0-55.5-44.8-100.3-100.3-100.3z m-403.2-121.6c0-74.7 61.9-134.4 138.7-134.4s138.7 59.7 138.7 134.4v121.6h-277.3v-121.6z m439.5 533.3c0 19.2-17.1 36.3-36.3 36.3H238.9c-19.2 0-36.3-17.1-36.3-36.3V516.3c0-19.2 17.1-36.3 36.3-36.3h546.1c19.2 0 36.3 17.1 36.3 36.3v311.5zM512 544c-17.1 0-32 14.9-32 32v106.7c0 17.1 14.9 32 32 32s32-14.9 32-32v-106.7c0-17.1-14.9-32-32-32z" p-id="1372"></path></svg>