<svg xmlns="http://www.w3.org/2000/svg" viewBox="0 0 1024 1024" version="1.1"><path d="M582.4 864H170.7c-6.4 0-10.7-4.3-10.7-10.7V170.7c0-6.4 4.3-10.7 10.7-10.7h309.3V320c0 40.5 34.1 74.7 74.7 74.7h160v38.4c0 17.1 14.9 32 32 32s32-14.9 32-32V298.7c0-8.5-4.3-17.1-8.5-23.5l-170.7-170.7c-6.4-6.4-14.9-8.5-23.5-8.5H170.7C130.1 96 96 130.1 96 170.7v682.7c0 40.5 34.1 74.7 74.7 74.7h411.7c17.1 0 32-14.9 32-32s-14.9-32-32-32z m132.3-550.4v17.1H554.7c-6.4 0-10.7-4.3-10.7-10.7V160h19.2l151.5 153.6zM332.8 533.3c-12.8 0-19.2 2.1-25.6 6.4-6.4 4.3-8.5 12.8-8.5 23.5v206.9c0 6.4 2.1 12.8 6.4 19.2 4.3 4.3 10.7 8.5 21.3 8.5s17.1-4.3 21.3-8.5c4.3-4.3 6.4-10.7 6.4-19.2v-64h32c57.6 0 89.6-29.9 89.6-87.5 0-27.7-8.5-51.2-23.5-64-14.9-14.9-36.3-21.3-66.1-21.3h-53.3z m87.5 85.3c0 12.8-2.1 23.5-8.5 27.7-4.3 4.3-14.9 8.5-27.7 8.5h-32v-70.4H384c12.8 0 21.3 2.1 27.7 8.5 6.4 4.3 8.5 12.8 8.5 25.6zM667.7 571.7c-8.5-12.8-21.3-21.3-34.1-29.9-14.9-4.3-32-8.5-51.2-8.5h-61.9c-8.5 0-17.1 0-23.5 8.5-2.1 4.3-4.3 10.7-4.3 19.2V768c0 8.5 2.1 14.9 4.3 19.2 6.4 8.5 14.9 8.5 23.5 8.5h64c19.2 0 34.1-4.3 49.1-10.7 12.8-6.4 25.6-17.1 34.1-29.9 8.5-12.8 14.9-25.6 19.2-42.7 4.3-14.9 6.4-32 6.4-49.1 0-17.1-2.1-34.1-6.4-49.1-4.3-14.9-10.7-29.9-19.2-42.7z m-42.7 153.6c-8.5 12.8-21.3 19.2-38.4 19.2h-38.4v-160H576c21.3 0 38.4 6.4 46.9 19.2 10.7 12.8 14.9 34.1 14.9 59.7 2.1 27.7-4.3 46.9-12.8 61.9zM851.2 533.3h-106.7c-8.5 0-17.1 2.1-21.3 6.4-6.4 4.3-8.5 12.8-8.5 21.3v209.1c0 6.4 2.1 12.8 6.4 17.1 4.3 6.4 10.7 8.5 21.3 8.5 8.5 0 17.1-2.1 21.3-8.5 2.1-4.3 6.4-8.5 6.4-19.2v-85.3h72.5c12.8 0 23.5-6.4 25.6-17.1 2.1-8.5 2.1-14.9 0-17.1-2.1-4.3-6.4-17.1-25.6-17.1H768v-49.1h81.1c8.5 0 14.9-2.1 19.2-4.3 4.3-2.1 8.5-8.5 8.5-21.3 2.1-12.8-8.5-23.5-25.6-23.5z" p-id="1581"></path></svg>