<svg xmlns="http://www.w3.org/2000/svg" viewBox="0 0 1024 1024" version="1.1"><path d="M128 522.7c17.1 0 32-14.9 32-32v-170.7c0-6.4 4.3-10.7 10.7-10.7h652.8l-83.2 83.2c-12.8 12.8-12.8 34.1 0 46.9 6.4 6.4 14.9 10.7 23.5 10.7s17.1-4.3 23.5-10.7l145.1-145.1c12.8-12.8 12.8-34.1 0-46.9l-145.1-145.1c-12.8-12.8-34.1-12.8-46.9 0-12.8 12.8-12.8 34.1 0 46.9l93.9 93.9H170.7c-40.5 0-74.7 34.1-74.7 74.7v170.7c0 19.2 14.9 34.1 32 34.1zM906.7 501.3c-17.1 0-32 14.9-32 32v170.7c0 6.4-4.3 10.7-10.7 10.7H211.2l83.2-83.2c12.8-12.8 12.8-34.1 0-46.9-12.8-12.8-34.1-12.8-46.9 0l-145.1 145.1c-12.8 12.8-12.8 34.1 0 46.9l145.1 145.1c6.4 6.4 14.9 10.7 23.5 10.7s17.1-4.3 23.5-10.7c12.8-12.8 12.8-34.1 0-46.9l-93.9-93.9h663.5c40.5 0 74.7-34.1 74.7-74.7v-170.7c0-19.2-12.8-34.1-32-34.1z" p-id="1779"></path></svg>