<svg xmlns="http://www.w3.org/2000/svg" viewBox="0 0 1024 1024" version="1.1"><path d="M512 74.7C270.9 74.7 74.7 270.9 74.7 512S270.9 949.3 512 949.3 949.3 753.1 949.3 512 753.1 74.7 512 74.7z m0 810.7c-204.8 0-373.3-168.5-373.3-373.3S307.2 138.7 512 138.7 885.3 307.2 885.3 512 716.8 885.3 512 885.3zM695.5 567.5l-151.5-70.4V277.3c0-17.1-14.9-32-32-32s-32 14.9-32 32v238.9c0 12.8 6.4 23.5 19.2 29.9l170.7 81.1c4.3 2.1 8.5 2.1 12.8 2.1 12.8 0 23.5-6.4 29.9-19.2 6.4-14.9 0-34.1-17.1-42.7z" p-id="1845"></path></svg>