<svg xmlns="http://www.w3.org/2000/svg" viewBox="0 0 1024 1024" version="1.1"><path d="M896 629.3c-17.1 0-32 14.9-32 32v170.7c0 6.4-4.3 10.7-10.7 10.7H170.7c-6.4 0-10.7-4.3-10.7-10.7v-170.7c0-17.1-14.9-32-32-32s-32 14.9-32 32v170.7c0 40.5 34.1 74.7 74.7 74.7h682.7c40.5 0 74.7-34.1 74.7-74.7v-170.7c0-17.1-14.9-32-32-32zM322.1 407.5l157.9-157.9V704c0 17.1 14.9 32 32 32s32-14.9 32-32V247.5l157.9 157.9c6.4 6.4 14.9 8.5 23.5 8.5s17.1-2.1 23.5-8.5c12.8-12.8 12.8-32 0-44.8l-213.3-213.3c-12.8-12.8-32-12.8-44.8 0l-213.3 213.3c-12.8 12.8-12.8 32 0 44.8 10.7 12.8 32 12.8 44.8 2.1z" p-id="1933"></path></svg>