<svg xmlns="http://www.w3.org/2000/svg" viewBox="0 0 1024 1024" version="1.1"><path d="M512 74.7C270.9 74.7 74.7 270.9 74.7 512S270.9 949.3 512 949.3 949.3 753.1 949.3 512 753.1 74.7 512 74.7zM288 810.7c0-123.7 100.3-224 224-224S736 686.9 736 810.7c-61.9 46.9-140.8 74.7-224 74.7s-162.1-27.7-224-74.7z m128-384c0-53.3 42.7-96 96-96s96 42.7 96 96-42.7 96-96 96-96-42.7-96-96z m377.6 328.5c-19.2-96-85.3-174.9-174.9-211.2 32-29.9 51.2-70.4 51.2-117.3 0-87.5-72.5-160-160-160s-160 72.5-160 160c0 46.9 19.2 87.5 51.2 117.3-89.6 36.3-155.7 115.2-174.9 211.2-55.5-66.1-91.7-149.3-91.7-243.2 0-204.8 168.5-373.3 373.3-373.3S885.3 307.2 885.3 512c0 93.9-34.1 177.1-91.7 243.2z" p-id="1922"></path></svg>